%TF.GenerationSoftware,KiCad,Pcbnew,(5.1.6)-1*%
%TF.CreationDate,2020-12-20T18:33:49+01:00*%
%TF.ProjectId,Addierer,41646469-6572-4657-922e-6b696361645f,rev?*%
%TF.SameCoordinates,Original*%
%TF.FileFunction,Soldermask,Bot*%
%TF.FilePolarity,Negative*%
%FSLAX46Y46*%
G04 Gerber Fmt 4.6, Leading zero omitted, Abs format (unit mm)*
G04 Created by KiCad (PCBNEW (5.1.6)-1) date 2020-12-20 18:33:49*
%MOMM*%
%LPD*%
G01*
G04 APERTURE LIST*
%ADD10R,2.100000X2.100000*%
%ADD11C,1.900000*%
%ADD12R,1.900000X1.900000*%
%ADD13C,1.700000*%
%ADD14O,1.700000X1.700000*%
%ADD15R,1.700000X1.700000*%
G04 APERTURE END LIST*
D10*
%TO.C,GND1*%
X59690000Y-109220000D03*
%TD*%
%TO.C,Vcc1*%
X59690000Y-105664000D03*
%TD*%
%TO.C,a1*%
X77216000Y-98044000D03*
%TD*%
%TO.C,a2*%
X105156000Y-98044000D03*
%TD*%
%TO.C,a3*%
X134874000Y-98044000D03*
%TD*%
%TO.C,a4*%
X164338000Y-98044000D03*
%TD*%
%TO.C,b1*%
X81026000Y-98044000D03*
%TD*%
%TO.C,b2*%
X109220000Y-98044000D03*
%TD*%
%TO.C,b3*%
X138938000Y-98044000D03*
%TD*%
%TO.C,b4*%
X168148000Y-98044000D03*
%TD*%
D11*
%TO.C,D1*%
X71882000Y-107442000D03*
D12*
X71882000Y-109982000D03*
%TD*%
D11*
%TO.C,D2*%
X86360000Y-107696000D03*
D12*
X86360000Y-110236000D03*
%TD*%
%TO.C,D3*%
X100838000Y-109982000D03*
D11*
X100838000Y-107442000D03*
%TD*%
D12*
%TO.C,D4*%
X116586000Y-110236000D03*
D11*
X116586000Y-107696000D03*
%TD*%
D12*
%TO.C,D5*%
X133350000Y-110236000D03*
D11*
X133350000Y-107696000D03*
%TD*%
%TO.C,D6*%
X149352000Y-107696000D03*
D12*
X149352000Y-110236000D03*
%TD*%
D11*
%TO.C,D7*%
X166116000Y-107950000D03*
D12*
X166116000Y-110490000D03*
%TD*%
%TO.C,D8*%
X182118000Y-110236000D03*
D11*
X182118000Y-107696000D03*
%TD*%
D10*
%TO.C,GND1*%
X55626000Y-109220000D03*
%TD*%
D13*
%TO.C,R1*%
X66548000Y-117348000D03*
D14*
X74168000Y-117348000D03*
%TD*%
%TO.C,R2*%
X88392000Y-117348000D03*
D13*
X80772000Y-117348000D03*
%TD*%
%TO.C,R3*%
X95504000Y-117348000D03*
D14*
X103124000Y-117348000D03*
%TD*%
%TO.C,R4*%
X118618000Y-117348000D03*
D13*
X110998000Y-117348000D03*
%TD*%
%TO.C,R5*%
X135382000Y-117348000D03*
D14*
X127762000Y-117348000D03*
%TD*%
%TO.C,R6*%
X151638000Y-117348000D03*
D13*
X144018000Y-117348000D03*
%TD*%
%TO.C,R7*%
X160782000Y-117348000D03*
D14*
X168402000Y-117348000D03*
%TD*%
D10*
%TO.C,S1*%
X84836000Y-98044000D03*
%TD*%
%TO.C,S2*%
X113538000Y-98044000D03*
%TD*%
%TO.C,S3*%
X143002000Y-98044000D03*
%TD*%
%TO.C,S4*%
X172212000Y-98044000D03*
%TD*%
D14*
%TO.C,U1*%
X65786000Y-124714000D03*
X58166000Y-139954000D03*
X65786000Y-127254000D03*
X58166000Y-137414000D03*
X65786000Y-129794000D03*
X58166000Y-134874000D03*
X65786000Y-132334000D03*
X58166000Y-132334000D03*
X65786000Y-134874000D03*
X58166000Y-129794000D03*
X65786000Y-137414000D03*
X58166000Y-127254000D03*
X65786000Y-139954000D03*
D15*
X58166000Y-124714000D03*
%TD*%
D14*
%TO.C,U2*%
X79248000Y-124714000D03*
X71628000Y-139954000D03*
X79248000Y-127254000D03*
X71628000Y-137414000D03*
X79248000Y-129794000D03*
X71628000Y-134874000D03*
X79248000Y-132334000D03*
X71628000Y-132334000D03*
X79248000Y-134874000D03*
X71628000Y-129794000D03*
X79248000Y-137414000D03*
X71628000Y-127254000D03*
X79248000Y-139954000D03*
D15*
X71628000Y-124714000D03*
%TD*%
%TO.C,U3*%
X84836000Y-124714000D03*
D14*
X92456000Y-139954000D03*
X84836000Y-127254000D03*
X92456000Y-137414000D03*
X84836000Y-129794000D03*
X92456000Y-134874000D03*
X84836000Y-132334000D03*
X92456000Y-132334000D03*
X84836000Y-134874000D03*
X92456000Y-129794000D03*
X84836000Y-137414000D03*
X92456000Y-127254000D03*
X84836000Y-139954000D03*
X92456000Y-124714000D03*
%TD*%
%TO.C,U4*%
X105410000Y-124714000D03*
X97790000Y-139954000D03*
X105410000Y-127254000D03*
X97790000Y-137414000D03*
X105410000Y-129794000D03*
X97790000Y-134874000D03*
X105410000Y-132334000D03*
X97790000Y-132334000D03*
X105410000Y-134874000D03*
X97790000Y-129794000D03*
X105410000Y-137414000D03*
X97790000Y-127254000D03*
X105410000Y-139954000D03*
D15*
X97790000Y-124714000D03*
%TD*%
%TO.C,U5*%
X110998000Y-124714000D03*
D14*
X118618000Y-139954000D03*
X110998000Y-127254000D03*
X118618000Y-137414000D03*
X110998000Y-129794000D03*
X118618000Y-134874000D03*
X110998000Y-132334000D03*
X118618000Y-132334000D03*
X110998000Y-134874000D03*
X118618000Y-129794000D03*
X110998000Y-137414000D03*
X118618000Y-127254000D03*
X110998000Y-139954000D03*
X118618000Y-124714000D03*
%TD*%
%TO.C,U6*%
X132080000Y-124714000D03*
X124460000Y-139954000D03*
X132080000Y-127254000D03*
X124460000Y-137414000D03*
X132080000Y-129794000D03*
X124460000Y-134874000D03*
X132080000Y-132334000D03*
X124460000Y-132334000D03*
X132080000Y-134874000D03*
X124460000Y-129794000D03*
X132080000Y-137414000D03*
X124460000Y-127254000D03*
X132080000Y-139954000D03*
D15*
X124460000Y-124714000D03*
%TD*%
%TO.C,U7*%
X137668000Y-124714000D03*
D14*
X145288000Y-139954000D03*
X137668000Y-127254000D03*
X145288000Y-137414000D03*
X137668000Y-129794000D03*
X145288000Y-134874000D03*
X137668000Y-132334000D03*
X145288000Y-132334000D03*
X137668000Y-134874000D03*
X145288000Y-129794000D03*
X137668000Y-137414000D03*
X145288000Y-127254000D03*
X137668000Y-139954000D03*
X145288000Y-124714000D03*
%TD*%
%TO.C,U8*%
X158496000Y-124714000D03*
X150876000Y-139954000D03*
X158496000Y-127254000D03*
X150876000Y-137414000D03*
X158496000Y-129794000D03*
X150876000Y-134874000D03*
X158496000Y-132334000D03*
X150876000Y-132334000D03*
X158496000Y-134874000D03*
X150876000Y-129794000D03*
X158496000Y-137414000D03*
X150876000Y-127254000D03*
X158496000Y-139954000D03*
D15*
X150876000Y-124714000D03*
%TD*%
%TO.C,U9*%
X163576000Y-124714000D03*
D14*
X171196000Y-139954000D03*
X163576000Y-127254000D03*
X171196000Y-137414000D03*
X163576000Y-129794000D03*
X171196000Y-134874000D03*
X163576000Y-132334000D03*
X171196000Y-132334000D03*
X163576000Y-134874000D03*
X171196000Y-129794000D03*
X163576000Y-137414000D03*
X171196000Y-127254000D03*
X163576000Y-139954000D03*
X171196000Y-124714000D03*
%TD*%
D15*
%TO.C,U10*%
X176784000Y-124714000D03*
D14*
X184404000Y-139954000D03*
X176784000Y-127254000D03*
X184404000Y-137414000D03*
X176784000Y-129794000D03*
X184404000Y-134874000D03*
X176784000Y-132334000D03*
X184404000Y-132334000D03*
X176784000Y-134874000D03*
X184404000Y-129794000D03*
X176784000Y-137414000D03*
X184404000Y-127254000D03*
X176784000Y-139954000D03*
X184404000Y-124714000D03*
%TD*%
D10*
%TO.C,Un1*%
X73406000Y-98044000D03*
%TD*%
%TO.C,Un2*%
X101092000Y-98044000D03*
%TD*%
%TO.C,Un3*%
X130810000Y-98044000D03*
%TD*%
%TO.C,Un4*%
X160528000Y-98044000D03*
%TD*%
%TO.C,Vcc1*%
X55626000Y-105664000D03*
%TD*%
%TO.C,\u00DCn+1*%
X88900000Y-98044000D03*
%TD*%
%TO.C,\u00DCn+2*%
X117602000Y-98044000D03*
%TD*%
%TO.C,\u00DCn+3*%
X147066000Y-98044000D03*
%TD*%
%TO.C,\u00DCn+4*%
X176530000Y-98044000D03*
%TD*%
D13*
%TO.C,R8*%
X176784000Y-117348000D03*
D14*
X184404000Y-117348000D03*
%TD*%
M02*
