M48
; DRILL file {KiCad (5.1.6)-1} date 12/20/20 18:45:05
; FORMAT={-:-/ absolute / metric / decimal}
; #@! TF.CreationDate,2020-12-20T18:45:05+01:00
; #@! TF.GenerationSoftware,Kicad,Pcbnew,(5.1.6)-1
; #@! TF.FileFunction,Plated,1,2,PTH
FMAT,2
METRIC
T1C0.400
T2C0.800
T3C0.900
T4C1.000
%
G90
G05
T1
X58.42Y-119.38
X61.976Y-113.03
X62.738Y-134.112
X63.246Y-116.84
X63.754Y-108.712
X73.66Y-131.826
X73.919Y-134.117
X75.184Y-119.634
X86.36Y-110.236
X91.44Y-109.22
X91.948Y-120.396
X93.726Y-111.252
X94.996Y-111.252
X105.918Y-107.696
X105.918Y-117.856
X122.428Y-118.11
X123.952Y-108.458
X123.952Y-119.634
X125.984Y-108.458
X134.874Y-144.018
X139.7Y-120.396
X139.7Y-144.018
X144.272Y-108.966
X152.908Y-143.51
X156.464Y-108.204
X156.718Y-118.872
X159.525Y-111.519
X161.29Y-122.428
X163.068Y-119.888
X175.006Y-110.49
X181.864Y-120.142
X186.69Y-119.38
T2
X124.46Y-124.714
X124.46Y-127.254
X124.46Y-129.794
X124.46Y-132.334
X124.46Y-134.874
X124.46Y-137.414
X124.46Y-139.954
X132.08Y-124.714
X132.08Y-127.254
X132.08Y-129.794
X132.08Y-132.334
X132.08Y-134.874
X132.08Y-137.414
X132.08Y-139.954
X150.876Y-124.714
X150.876Y-127.254
X150.876Y-129.794
X150.876Y-132.334
X150.876Y-134.874
X150.876Y-137.414
X150.876Y-139.954
X158.496Y-124.714
X158.496Y-127.254
X158.496Y-129.794
X158.496Y-132.334
X158.496Y-134.874
X158.496Y-137.414
X158.496Y-139.954
X97.79Y-124.714
X97.79Y-127.254
X97.79Y-129.794
X97.79Y-132.334
X97.79Y-134.874
X97.79Y-137.414
X97.79Y-139.954
X105.41Y-124.714
X105.41Y-127.254
X105.41Y-129.794
X105.41Y-132.334
X105.41Y-134.874
X105.41Y-137.414
X105.41Y-139.954
X110.998Y-117.348
X118.618Y-117.348
X110.998Y-124.714
X110.998Y-127.254
X110.998Y-129.794
X110.998Y-132.334
X110.998Y-134.874
X110.998Y-137.414
X110.998Y-139.954
X118.618Y-124.714
X118.618Y-127.254
X118.618Y-129.794
X118.618Y-132.334
X118.618Y-134.874
X118.618Y-137.414
X118.618Y-139.954
X71.628Y-124.714
X71.628Y-127.254
X71.628Y-129.794
X71.628Y-132.334
X71.628Y-134.874
X71.628Y-137.414
X71.628Y-139.954
X79.248Y-124.714
X79.248Y-127.254
X79.248Y-129.794
X79.248Y-132.334
X79.248Y-134.874
X79.248Y-137.414
X79.248Y-139.954
X95.504Y-117.348
X103.124Y-117.348
X176.784Y-117.348
X184.404Y-117.348
X58.166Y-124.714
X58.166Y-127.254
X58.166Y-129.794
X58.166Y-132.334
X58.166Y-134.874
X58.166Y-137.414
X58.166Y-139.954
X65.786Y-124.714
X65.786Y-127.254
X65.786Y-129.794
X65.786Y-132.334
X65.786Y-134.874
X65.786Y-137.414
X65.786Y-139.954
X80.772Y-117.348
X88.392Y-117.348
X66.548Y-117.348
X74.168Y-117.348
X84.836Y-124.714
X84.836Y-127.254
X84.836Y-129.794
X84.836Y-132.334
X84.836Y-134.874
X84.836Y-137.414
X84.836Y-139.954
X92.456Y-124.714
X92.456Y-127.254
X92.456Y-129.794
X92.456Y-132.334
X92.456Y-134.874
X92.456Y-137.414
X92.456Y-139.954
X176.784Y-124.714
X176.784Y-127.254
X176.784Y-129.794
X176.784Y-132.334
X176.784Y-134.874
X176.784Y-137.414
X176.784Y-139.954
X184.404Y-124.714
X184.404Y-127.254
X184.404Y-129.794
X184.404Y-132.334
X184.404Y-134.874
X184.404Y-137.414
X184.404Y-139.954
X160.782Y-117.348
X168.402Y-117.348
X127.762Y-117.348
X135.382Y-117.348
X163.576Y-124.714
X163.576Y-127.254
X163.576Y-129.794
X163.576Y-132.334
X163.576Y-134.874
X163.576Y-137.414
X163.576Y-139.954
X171.196Y-124.714
X171.196Y-127.254
X171.196Y-129.794
X171.196Y-132.334
X171.196Y-134.874
X171.196Y-137.414
X171.196Y-139.954
X144.018Y-117.348
X151.638Y-117.348
X137.668Y-124.714
X137.668Y-127.254
X137.668Y-129.794
X137.668Y-132.334
X137.668Y-134.874
X137.668Y-137.414
X137.668Y-139.954
X145.288Y-124.714
X145.288Y-127.254
X145.288Y-129.794
X145.288Y-132.334
X145.288Y-134.874
X145.288Y-137.414
X145.288Y-139.954
T3
X133.35Y-107.696
X133.35Y-110.236
X149.352Y-107.696
X149.352Y-110.236
X166.116Y-107.95
X166.116Y-110.49
X100.838Y-107.442
X100.838Y-109.982
X182.118Y-107.696
X182.118Y-110.236
X86.36Y-107.696
X86.36Y-110.236
X71.882Y-107.442
X71.882Y-109.982
X116.586Y-107.696
X116.586Y-110.236
T4
X88.9Y-98.044
X55.626Y-109.22
X59.69Y-105.664
X105.156Y-98.044
X55.626Y-105.664
X143.002Y-98.044
X109.22Y-98.044
X160.528Y-98.044
X138.938Y-98.044
X130.81Y-98.044
X84.836Y-98.044
X134.874Y-98.044
X77.216Y-98.044
X176.53Y-98.044
X101.092Y-98.044
X172.212Y-98.044
X168.148Y-98.044
X59.69Y-109.22
X147.066Y-98.044
X164.338Y-98.044
X73.406Y-98.044
X113.538Y-98.044
X117.602Y-98.044
X81.026Y-98.044
T0
M30
