%TF.GenerationSoftware,KiCad,Pcbnew,(5.1.6)-1*%
%TF.CreationDate,2020-12-20T18:33:48+01:00*%
%TF.ProjectId,Addierer,41646469-6572-4657-922e-6b696361645f,rev?*%
%TF.SameCoordinates,Original*%
%TF.FileFunction,Copper,L1,Top*%
%TF.FilePolarity,Positive*%
%FSLAX46Y46*%
G04 Gerber Fmt 4.6, Leading zero omitted, Abs format (unit mm)*
G04 Created by KiCad (PCBNEW (5.1.6)-1) date 2020-12-20 18:33:48*
%MOMM*%
%LPD*%
G01*
G04 APERTURE LIST*
%TA.AperFunction,ComponentPad*%
%ADD10R,2.000000X2.000000*%
%TD*%
%TA.AperFunction,ComponentPad*%
%ADD11C,1.800000*%
%TD*%
%TA.AperFunction,ComponentPad*%
%ADD12R,1.800000X1.800000*%
%TD*%
%TA.AperFunction,ComponentPad*%
%ADD13C,1.600000*%
%TD*%
%TA.AperFunction,ComponentPad*%
%ADD14O,1.600000X1.600000*%
%TD*%
%TA.AperFunction,ComponentPad*%
%ADD15R,1.600000X1.600000*%
%TD*%
%TA.AperFunction,ViaPad*%
%ADD16C,0.800000*%
%TD*%
%TA.AperFunction,Conductor*%
%ADD17C,0.250000*%
%TD*%
G04 APERTURE END LIST*
D10*
%TO.P,GND1,1*%
%TO.N,GND*%
X59690000Y-109220000D03*
%TD*%
%TO.P,Vcc1,1*%
%TO.N,+5V*%
X59690000Y-105664000D03*
%TD*%
%TO.P,a1,1*%
%TO.N,Net-(U1-Pad1)*%
X77216000Y-98044000D03*
%TD*%
%TO.P,a2,1*%
%TO.N,Net-(U3-Pad4)*%
X105156000Y-98044000D03*
%TD*%
%TO.P,a3,1*%
%TO.N,Net-(U5-Pad12)*%
X134874000Y-98044000D03*
%TD*%
%TO.P,a4,1*%
%TO.N,Net-(U8-Pad12)*%
X164338000Y-98044000D03*
%TD*%
%TO.P,b1,1*%
%TO.N,Net-(U1-Pad2)*%
X81026000Y-98044000D03*
%TD*%
%TO.P,b2,1*%
%TO.N,Net-(U3-Pad13)*%
X109220000Y-98044000D03*
%TD*%
%TO.P,b3,1*%
%TO.N,Net-(U5-Pad10)*%
X138938000Y-98044000D03*
%TD*%
%TO.P,b4,1*%
%TO.N,Net-(U8-Pad13)*%
X168148000Y-98044000D03*
%TD*%
D11*
%TO.P,D1,2*%
%TO.N,Net-(D1-Pad2)*%
X71882000Y-107442000D03*
D12*
%TO.P,D1,1*%
%TO.N,GND*%
X71882000Y-109982000D03*
%TD*%
D11*
%TO.P,D2,2*%
%TO.N,Net-(D2-Pad2)*%
X86360000Y-107696000D03*
D12*
%TO.P,D2,1*%
%TO.N,GND*%
X86360000Y-110236000D03*
%TD*%
%TO.P,D3,1*%
%TO.N,GND*%
X100838000Y-109982000D03*
D11*
%TO.P,D3,2*%
%TO.N,Net-(D3-Pad2)*%
X100838000Y-107442000D03*
%TD*%
D12*
%TO.P,D4,1*%
%TO.N,GND*%
X116586000Y-110236000D03*
D11*
%TO.P,D4,2*%
%TO.N,Net-(D4-Pad2)*%
X116586000Y-107696000D03*
%TD*%
D12*
%TO.P,D5,1*%
%TO.N,GND*%
X133350000Y-110236000D03*
D11*
%TO.P,D5,2*%
%TO.N,Net-(D5-Pad2)*%
X133350000Y-107696000D03*
%TD*%
%TO.P,D6,2*%
%TO.N,Net-(D6-Pad2)*%
X149352000Y-107696000D03*
D12*
%TO.P,D6,1*%
%TO.N,GND*%
X149352000Y-110236000D03*
%TD*%
D11*
%TO.P,D7,2*%
%TO.N,Net-(D7-Pad2)*%
X166116000Y-107950000D03*
D12*
%TO.P,D7,1*%
%TO.N,GND*%
X166116000Y-110490000D03*
%TD*%
%TO.P,D8,1*%
%TO.N,GND*%
X182118000Y-110236000D03*
D11*
%TO.P,D8,2*%
%TO.N,Net-(D8-Pad2)*%
X182118000Y-107696000D03*
%TD*%
D10*
%TO.P,GND1,1*%
%TO.N,GND*%
X55626000Y-109220000D03*
%TD*%
D13*
%TO.P,R1,1*%
%TO.N,Net-(R1-Pad1)*%
X66548000Y-117348000D03*
D14*
%TO.P,R1,2*%
%TO.N,Net-(D1-Pad2)*%
X74168000Y-117348000D03*
%TD*%
%TO.P,R2,2*%
%TO.N,Net-(D2-Pad2)*%
X88392000Y-117348000D03*
D13*
%TO.P,R2,1*%
%TO.N,Net-(R2-Pad1)*%
X80772000Y-117348000D03*
%TD*%
%TO.P,R3,1*%
%TO.N,Net-(R3-Pad1)*%
X95504000Y-117348000D03*
D14*
%TO.P,R3,2*%
%TO.N,Net-(D3-Pad2)*%
X103124000Y-117348000D03*
%TD*%
%TO.P,R4,2*%
%TO.N,Net-(D4-Pad2)*%
X118618000Y-117348000D03*
D13*
%TO.P,R4,1*%
%TO.N,Net-(R4-Pad1)*%
X110998000Y-117348000D03*
%TD*%
%TO.P,R5,1*%
%TO.N,Net-(R5-Pad1)*%
X135382000Y-117348000D03*
D14*
%TO.P,R5,2*%
%TO.N,Net-(D5-Pad2)*%
X127762000Y-117348000D03*
%TD*%
%TO.P,R6,2*%
%TO.N,Net-(D6-Pad2)*%
X151638000Y-117348000D03*
D13*
%TO.P,R6,1*%
%TO.N,Net-(R6-Pad1)*%
X144018000Y-117348000D03*
%TD*%
%TO.P,R7,1*%
%TO.N,Net-(R7-Pad1)*%
X160782000Y-117348000D03*
D14*
%TO.P,R7,2*%
%TO.N,Net-(D7-Pad2)*%
X168402000Y-117348000D03*
%TD*%
D10*
%TO.P,S1,1*%
%TO.N,Net-(R1-Pad1)*%
X84836000Y-98044000D03*
%TD*%
%TO.P,S2,1*%
%TO.N,Net-(R3-Pad1)*%
X113538000Y-98044000D03*
%TD*%
%TO.P,S3,1*%
%TO.N,Net-(R5-Pad1)*%
X143002000Y-98044000D03*
%TD*%
%TO.P,S4,1*%
%TO.N,Net-(R7-Pad1)*%
X172212000Y-98044000D03*
%TD*%
D14*
%TO.P,U1,14*%
%TO.N,+5V*%
X65786000Y-124714000D03*
%TO.P,U1,7*%
%TO.N,GND*%
X58166000Y-139954000D03*
%TO.P,U1,13*%
%TO.N,Net-(U1-Pad13)*%
X65786000Y-127254000D03*
%TO.P,U1,6*%
%TO.N,Net-(U1-Pad12)*%
X58166000Y-137414000D03*
%TO.P,U1,12*%
X65786000Y-129794000D03*
%TO.P,U1,5*%
%TO.N,Net-(U1-Pad10)*%
X58166000Y-134874000D03*
%TO.P,U1,11*%
%TO.N,Net-(U1-Pad11)*%
X65786000Y-132334000D03*
%TO.P,U1,4*%
%TO.N,Net-(U1-Pad1)*%
X58166000Y-132334000D03*
%TO.P,U1,10*%
%TO.N,Net-(U1-Pad10)*%
X65786000Y-134874000D03*
%TO.P,U1,3*%
X58166000Y-129794000D03*
%TO.P,U1,9*%
%TO.N,Net-(U1-Pad2)*%
X65786000Y-137414000D03*
%TO.P,U1,2*%
X58166000Y-127254000D03*
%TO.P,U1,8*%
%TO.N,Net-(U1-Pad13)*%
X65786000Y-139954000D03*
D15*
%TO.P,U1,1*%
%TO.N,Net-(U1-Pad1)*%
X58166000Y-124714000D03*
%TD*%
D14*
%TO.P,U2,14*%
%TO.N,+5V*%
X79248000Y-124714000D03*
%TO.P,U2,7*%
%TO.N,GND*%
X71628000Y-139954000D03*
%TO.P,U2,13*%
%TO.N,Net-(U2-Pad13)*%
X79248000Y-127254000D03*
%TO.P,U2,6*%
%TO.N,Net-(U2-Pad12)*%
X71628000Y-137414000D03*
%TO.P,U2,12*%
X79248000Y-129794000D03*
%TO.P,U2,5*%
%TO.N,Net-(U2-Pad3)*%
X71628000Y-134874000D03*
%TO.P,U2,11*%
%TO.N,Net-(R1-Pad1)*%
X79248000Y-132334000D03*
%TO.P,U2,4*%
%TO.N,Net-(U1-Pad11)*%
X71628000Y-132334000D03*
%TO.P,U2,10*%
%TO.N,Net-(U2-Pad10)*%
X79248000Y-134874000D03*
%TO.P,U2,3*%
%TO.N,Net-(U2-Pad3)*%
X71628000Y-129794000D03*
%TO.P,U2,9*%
X79248000Y-137414000D03*
%TO.P,U2,2*%
%TO.N,Net-(U2-Pad10)*%
X71628000Y-127254000D03*
%TO.P,U2,8*%
%TO.N,Net-(U2-Pad13)*%
X79248000Y-139954000D03*
D15*
%TO.P,U2,1*%
%TO.N,Net-(U1-Pad11)*%
X71628000Y-124714000D03*
%TD*%
%TO.P,U3,1*%
%TO.N,Net-(U2-Pad3)*%
X84836000Y-124714000D03*
D14*
%TO.P,U3,8*%
%TO.N,Net-(U3-Pad8)*%
X92456000Y-139954000D03*
%TO.P,U3,2*%
%TO.N,Net-(U1-Pad10)*%
X84836000Y-127254000D03*
%TO.P,U3,9*%
%TO.N,Net-(U3-Pad4)*%
X92456000Y-137414000D03*
%TO.P,U3,3*%
%TO.N,Net-(R2-Pad1)*%
X84836000Y-129794000D03*
%TO.P,U3,10*%
%TO.N,Net-(U3-Pad10)*%
X92456000Y-134874000D03*
%TO.P,U3,4*%
%TO.N,Net-(U3-Pad4)*%
X84836000Y-132334000D03*
%TO.P,U3,11*%
%TO.N,Net-(U3-Pad11)*%
X92456000Y-132334000D03*
%TO.P,U3,5*%
%TO.N,Net-(U3-Pad13)*%
X84836000Y-134874000D03*
%TO.P,U3,12*%
%TO.N,Net-(U3-Pad10)*%
X92456000Y-129794000D03*
%TO.P,U3,6*%
X84836000Y-137414000D03*
%TO.P,U3,13*%
%TO.N,Net-(U3-Pad13)*%
X92456000Y-127254000D03*
%TO.P,U3,7*%
%TO.N,GND*%
X84836000Y-139954000D03*
%TO.P,U3,14*%
%TO.N,+5V*%
X92456000Y-124714000D03*
%TD*%
%TO.P,U4,14*%
%TO.N,+5V*%
X105410000Y-124714000D03*
%TO.P,U4,7*%
%TO.N,GND*%
X97790000Y-139954000D03*
%TO.P,U4,13*%
%TO.N,Net-(U4-Pad13)*%
X105410000Y-127254000D03*
%TO.P,U4,6*%
%TO.N,Net-(U4-Pad10)*%
X97790000Y-137414000D03*
%TO.P,U4,12*%
X105410000Y-129794000D03*
%TO.P,U4,5*%
%TO.N,Net-(U4-Pad13)*%
X97790000Y-134874000D03*
%TO.P,U4,11*%
%TO.N,Net-(U4-Pad11)*%
X105410000Y-132334000D03*
%TO.P,U4,4*%
%TO.N,Net-(U4-Pad3)*%
X97790000Y-132334000D03*
%TO.P,U4,10*%
%TO.N,Net-(U4-Pad10)*%
X105410000Y-134874000D03*
%TO.P,U4,3*%
%TO.N,Net-(U4-Pad3)*%
X97790000Y-129794000D03*
%TO.P,U4,9*%
X105410000Y-137414000D03*
%TO.P,U4,2*%
%TO.N,Net-(U3-Pad11)*%
X97790000Y-127254000D03*
%TO.P,U4,8*%
%TO.N,Net-(U4-Pad8)*%
X105410000Y-139954000D03*
D15*
%TO.P,U4,1*%
%TO.N,Net-(U3-Pad8)*%
X97790000Y-124714000D03*
%TD*%
%TO.P,U5,1*%
%TO.N,Net-(U4-Pad8)*%
X110998000Y-124714000D03*
D14*
%TO.P,U5,8*%
%TO.N,Net-(U5-Pad13)*%
X118618000Y-139954000D03*
%TO.P,U5,2*%
%TO.N,Net-(U4-Pad11)*%
X110998000Y-127254000D03*
%TO.P,U5,9*%
%TO.N,Net-(U5-Pad12)*%
X118618000Y-137414000D03*
%TO.P,U5,3*%
%TO.N,Net-(R3-Pad1)*%
X110998000Y-129794000D03*
%TO.P,U5,10*%
%TO.N,Net-(U5-Pad10)*%
X118618000Y-134874000D03*
%TO.P,U5,4*%
%TO.N,Net-(U4-Pad10)*%
X110998000Y-132334000D03*
%TO.P,U5,11*%
%TO.N,Net-(U5-Pad11)*%
X118618000Y-132334000D03*
%TO.P,U5,5*%
%TO.N,Net-(U3-Pad10)*%
X110998000Y-134874000D03*
%TO.P,U5,12*%
%TO.N,Net-(U5-Pad12)*%
X118618000Y-129794000D03*
%TO.P,U5,6*%
%TO.N,Net-(R4-Pad1)*%
X110998000Y-137414000D03*
%TO.P,U5,13*%
%TO.N,Net-(U5-Pad13)*%
X118618000Y-127254000D03*
%TO.P,U5,7*%
%TO.N,GND*%
X110998000Y-139954000D03*
%TO.P,U5,14*%
%TO.N,+5V*%
X118618000Y-124714000D03*
%TD*%
%TO.P,U6,14*%
%TO.N,+5V*%
X132080000Y-124714000D03*
%TO.P,U6,7*%
%TO.N,GND*%
X124460000Y-139954000D03*
%TO.P,U6,13*%
%TO.N,N/C*%
X132080000Y-127254000D03*
%TO.P,U6,6*%
%TO.N,Net-(U6-Pad6)*%
X124460000Y-137414000D03*
%TO.P,U6,12*%
%TO.N,N/C*%
X132080000Y-129794000D03*
%TO.P,U6,5*%
%TO.N,Net-(U6-Pad3)*%
X124460000Y-134874000D03*
%TO.P,U6,11*%
%TO.N,N/C*%
X132080000Y-132334000D03*
%TO.P,U6,4*%
%TO.N,Net-(U5-Pad11)*%
X124460000Y-132334000D03*
%TO.P,U6,10*%
%TO.N,N/C*%
X132080000Y-134874000D03*
%TO.P,U6,3*%
%TO.N,Net-(U6-Pad3)*%
X124460000Y-129794000D03*
%TO.P,U6,9*%
%TO.N,N/C*%
X132080000Y-137414000D03*
%TO.P,U6,2*%
%TO.N,Net-(U5-Pad13)*%
X124460000Y-127254000D03*
%TO.P,U6,8*%
%TO.N,N/C*%
X132080000Y-139954000D03*
D15*
%TO.P,U6,1*%
%TO.N,Net-(U5-Pad10)*%
X124460000Y-124714000D03*
%TD*%
%TO.P,U7,1*%
%TO.N,N/C*%
X137668000Y-124714000D03*
D14*
%TO.P,U7,8*%
%TO.N,Net-(U7-Pad13)*%
X145288000Y-139954000D03*
%TO.P,U7,2*%
%TO.N,N/C*%
X137668000Y-127254000D03*
%TO.P,U7,9*%
%TO.N,Net-(U6-Pad6)*%
X145288000Y-137414000D03*
%TO.P,U7,3*%
%TO.N,N/C*%
X137668000Y-129794000D03*
%TO.P,U7,10*%
%TO.N,Net-(U7-Pad10)*%
X145288000Y-134874000D03*
%TO.P,U7,4*%
%TO.N,N/C*%
X137668000Y-132334000D03*
%TO.P,U7,11*%
%TO.N,Net-(U7-Pad11)*%
X145288000Y-132334000D03*
%TO.P,U7,5*%
%TO.N,N/C*%
X137668000Y-134874000D03*
%TO.P,U7,12*%
%TO.N,Net-(U6-Pad6)*%
X145288000Y-129794000D03*
%TO.P,U7,6*%
%TO.N,N/C*%
X137668000Y-137414000D03*
%TO.P,U7,13*%
%TO.N,Net-(U7-Pad13)*%
X145288000Y-127254000D03*
%TO.P,U7,7*%
%TO.N,GND*%
X137668000Y-139954000D03*
%TO.P,U7,14*%
%TO.N,+5V*%
X145288000Y-124714000D03*
%TD*%
%TO.P,U8,14*%
%TO.N,+5V*%
X158496000Y-124714000D03*
%TO.P,U8,7*%
%TO.N,GND*%
X150876000Y-139954000D03*
%TO.P,U8,13*%
%TO.N,Net-(U8-Pad13)*%
X158496000Y-127254000D03*
%TO.P,U8,6*%
%TO.N,Net-(R5-Pad1)*%
X150876000Y-137414000D03*
%TO.P,U8,12*%
%TO.N,Net-(U8-Pad12)*%
X158496000Y-129794000D03*
%TO.P,U8,5*%
%TO.N,Net-(U8-Pad3)*%
X150876000Y-134874000D03*
%TO.P,U8,11*%
%TO.N,Net-(U10-Pad13)*%
X158496000Y-132334000D03*
%TO.P,U8,4*%
%TO.N,Net-(U7-Pad11)*%
X150876000Y-132334000D03*
%TO.P,U8,10*%
%TO.N,Net-(U5-Pad13)*%
X158496000Y-134874000D03*
%TO.P,U8,3*%
%TO.N,Net-(U8-Pad3)*%
X150876000Y-129794000D03*
%TO.P,U8,9*%
%TO.N,Net-(U7-Pad13)*%
X158496000Y-137414000D03*
%TO.P,U8,2*%
%TO.N,Net-(U7-Pad10)*%
X150876000Y-127254000D03*
%TO.P,U8,8*%
%TO.N,Net-(R6-Pad1)*%
X158496000Y-139954000D03*
D15*
%TO.P,U8,1*%
%TO.N,Net-(U7-Pad13)*%
X150876000Y-124714000D03*
%TD*%
%TO.P,U9,1*%
%TO.N,Net-(U8-Pad12)*%
X163576000Y-124714000D03*
D14*
%TO.P,U9,8*%
%TO.N,Net-(U10-Pad1)*%
X171196000Y-139954000D03*
%TO.P,U9,2*%
%TO.N,Net-(U10-Pad13)*%
X163576000Y-127254000D03*
%TO.P,U9,9*%
%TO.N,Net-(U9-Pad3)*%
X171196000Y-137414000D03*
%TO.P,U9,3*%
X163576000Y-129794000D03*
%TO.P,U9,10*%
%TO.N,Net-(U9-Pad10)*%
X171196000Y-134874000D03*
%TO.P,U9,4*%
%TO.N,Net-(U10-Pad13)*%
X163576000Y-132334000D03*
%TO.P,U9,11*%
%TO.N,Net-(U10-Pad12)*%
X171196000Y-132334000D03*
%TO.P,U9,5*%
%TO.N,Net-(U8-Pad13)*%
X163576000Y-134874000D03*
%TO.P,U9,12*%
%TO.N,Net-(U10-Pad1)*%
X171196000Y-129794000D03*
%TO.P,U9,6*%
%TO.N,Net-(U9-Pad10)*%
X163576000Y-137414000D03*
%TO.P,U9,13*%
%TO.N,Net-(U10-Pad5)*%
X171196000Y-127254000D03*
%TO.P,U9,7*%
%TO.N,GND*%
X163576000Y-139954000D03*
%TO.P,U9,14*%
%TO.N,+5V*%
X171196000Y-124714000D03*
%TD*%
D15*
%TO.P,U10,1*%
%TO.N,Net-(U10-Pad1)*%
X176784000Y-124714000D03*
D14*
%TO.P,U10,8*%
%TO.N,Net-(R7-Pad1)*%
X184404000Y-139954000D03*
%TO.P,U10,2*%
%TO.N,Net-(U10-Pad12)*%
X176784000Y-127254000D03*
%TO.P,U10,9*%
%TO.N,Net-(U10-Pad3)*%
X184404000Y-137414000D03*
%TO.P,U10,3*%
X176784000Y-129794000D03*
%TO.P,U10,10*%
%TO.N,Net-(U10-Pad10)*%
X184404000Y-134874000D03*
%TO.P,U10,4*%
%TO.N,Net-(U10-Pad12)*%
X176784000Y-132334000D03*
%TO.P,U10,11*%
%TO.N,Net-(R8-Pad1)*%
X184404000Y-132334000D03*
%TO.P,U10,5*%
%TO.N,Net-(U10-Pad5)*%
X176784000Y-134874000D03*
%TO.P,U10,12*%
%TO.N,Net-(U10-Pad12)*%
X184404000Y-129794000D03*
%TO.P,U10,6*%
%TO.N,Net-(U10-Pad10)*%
X176784000Y-137414000D03*
%TO.P,U10,13*%
%TO.N,Net-(U10-Pad13)*%
X184404000Y-127254000D03*
%TO.P,U10,7*%
%TO.N,GND*%
X176784000Y-139954000D03*
%TO.P,U10,14*%
%TO.N,+5V*%
X184404000Y-124714000D03*
%TD*%
D10*
%TO.P,Un1,1*%
%TO.N,Net-(U2-Pad10)*%
X73406000Y-98044000D03*
%TD*%
%TO.P,Un2,1*%
%TO.N,Net-(U4-Pad13)*%
X101092000Y-98044000D03*
%TD*%
%TO.P,Un3,1*%
%TO.N,Net-(U7-Pad10)*%
X130810000Y-98044000D03*
%TD*%
%TO.P,Un4,1*%
%TO.N,Net-(U10-Pad5)*%
X160528000Y-98044000D03*
%TD*%
%TO.P,Vcc1,1*%
%TO.N,+5V*%
X55626000Y-105664000D03*
%TD*%
%TO.P,\u00DCn+1,1*%
%TO.N,Net-(R2-Pad1)*%
X88900000Y-98044000D03*
%TD*%
%TO.P,\u00DCn+2,1*%
%TO.N,Net-(R4-Pad1)*%
X117602000Y-98044000D03*
%TD*%
%TO.P,\u00DCn+3,1*%
%TO.N,Net-(R6-Pad1)*%
X147066000Y-98044000D03*
%TD*%
%TO.P,\u00DCn+4,1*%
%TO.N,Net-(R8-Pad1)*%
X176530000Y-98044000D03*
%TD*%
D13*
%TO.P,R8,1*%
%TO.N,Net-(R8-Pad1)*%
X176784000Y-117348000D03*
D14*
%TO.P,R8,2*%
%TO.N,Net-(D8-Pad2)*%
X184404000Y-117348000D03*
%TD*%
D16*
%TO.N,Net-(U1-Pad1)*%
X63754000Y-108712000D03*
X58420000Y-119380000D03*
%TO.N,Net-(U1-Pad2)*%
X62738000Y-134112000D03*
X61976000Y-113030000D03*
%TO.N,Net-(R7-Pad1)*%
X181864000Y-120142000D03*
X186690000Y-119380000D03*
%TO.N,Net-(R1-Pad1)*%
X75184000Y-119634000D03*
%TO.N,Net-(R3-Pad1)*%
X105918000Y-107696000D03*
X105918000Y-117856000D03*
%TO.N,Net-(U2-Pad10)*%
X63246000Y-116840000D03*
%TO.N,Net-(U2-Pad12)*%
X73660000Y-131826000D03*
X73918653Y-134116653D03*
%TO.N,Net-(U3-Pad4)*%
X93726000Y-111252000D03*
%TO.N,Net-(U3-Pad13)*%
X91440000Y-109220000D03*
X91948000Y-120396000D03*
%TO.N,Net-(U4-Pad13)*%
X94996000Y-111252000D03*
%TO.N,Net-(U5-Pad12)*%
X123952000Y-108458000D03*
X122428000Y-118110000D03*
%TO.N,Net-(U5-Pad10)*%
X125984000Y-108458000D03*
X123952000Y-119634000D03*
%TO.N,Net-(R6-Pad1)*%
X144272000Y-108966000D03*
%TO.N,Net-(U6-Pad6)*%
X134874000Y-144018000D03*
X139700000Y-144018000D03*
%TO.N,Net-(U7-Pad13)*%
X152908000Y-143510000D03*
%TO.N,Net-(U7-Pad10)*%
X139700000Y-120396000D03*
%TO.N,Net-(U8-Pad12)*%
X163068000Y-119888000D03*
%TO.N,Net-(U8-Pad13)*%
X156464000Y-108204000D03*
X156718000Y-118872000D03*
%TO.N,Net-(U10-Pad5)*%
X161290000Y-122428000D03*
X159524991Y-111518991D03*
%TO.N,GND*%
X86360000Y-110236000D03*
X175006000Y-110490000D03*
%TD*%
D17*
%TO.N,Net-(U1-Pad1)*%
X63754000Y-108712000D02*
X63754000Y-114046000D01*
X63754000Y-114046000D02*
X58420000Y-119380000D01*
%TO.N,Net-(U1-Pad2)*%
X62738000Y-134112000D02*
X62738000Y-130302000D01*
X59690000Y-127254000D02*
X58166000Y-127254000D01*
X62738000Y-130302000D02*
X59690000Y-127254000D01*
X81026000Y-98044000D02*
X81026000Y-97282000D01*
X81026000Y-97282000D02*
X79248000Y-95504000D01*
X79248000Y-95504000D02*
X66294000Y-95504000D01*
X66294000Y-95504000D02*
X61976000Y-99822000D01*
X61976000Y-99822000D02*
X61976000Y-113030000D01*
%TO.N,Net-(D1-Pad2)*%
X75438000Y-116078000D02*
X74168000Y-117348000D01*
X71882000Y-107442000D02*
X74168000Y-107442000D01*
X75438000Y-108712000D02*
X75438000Y-116078000D01*
X74168000Y-107442000D02*
X75438000Y-108712000D01*
%TO.N,Net-(D3-Pad2)*%
X100838000Y-107442000D02*
X102362000Y-107442000D01*
X102362000Y-107442000D02*
X104140000Y-109220000D01*
X104140000Y-116332000D02*
X103124000Y-117348000D01*
X104140000Y-109220000D02*
X104140000Y-116332000D01*
%TO.N,Net-(R1-Pad1)*%
X84836000Y-98044000D02*
X84836000Y-100076000D01*
X84836000Y-100076000D02*
X76708000Y-108204000D01*
X76708000Y-108204000D02*
X76708000Y-118110000D01*
X76708000Y-118110000D02*
X75184000Y-119634000D01*
%TO.N,Net-(R3-Pad1)*%
X105918000Y-107696000D02*
X105918000Y-117856000D01*
%TO.N,Net-(U1-Pad10)*%
X58166000Y-134874000D02*
X65786000Y-134874000D01*
X66911001Y-133748999D02*
X73261001Y-133748999D01*
X65786000Y-134874000D02*
X66911001Y-133748999D01*
X75801001Y-131208999D02*
X80916999Y-131208999D01*
X73261001Y-133748999D02*
X75801001Y-131208999D01*
X80916999Y-131208999D02*
X82042000Y-130083998D01*
X82042000Y-130083998D02*
X82042000Y-127762000D01*
X84328000Y-127762000D02*
X84836000Y-127254000D01*
X82042000Y-127762000D02*
X84328000Y-127762000D01*
%TO.N,Net-(U1-Pad11)*%
X71628000Y-124714000D02*
X69850000Y-124714000D01*
X69088000Y-125476000D02*
X69088000Y-132334000D01*
X69850000Y-124714000D02*
X69088000Y-125476000D01*
X65786000Y-132334000D02*
X69088000Y-132334000D01*
X69088000Y-132334000D02*
X71628000Y-132334000D01*
%TO.N,Net-(U2-Pad10)*%
X73406000Y-98044000D02*
X70104000Y-98044000D01*
X70104000Y-98044000D02*
X65786000Y-102362000D01*
X65422999Y-102725001D02*
X65422999Y-114663001D01*
X65786000Y-102362000D02*
X65422999Y-102725001D01*
X65422999Y-114663001D02*
X63246000Y-116840000D01*
%TO.N,Net-(U2-Pad12)*%
X79248000Y-129794000D02*
X75692000Y-129794000D01*
X75692000Y-129794000D02*
X73660000Y-131826000D01*
X73918653Y-134116653D02*
X73918653Y-136393347D01*
X72898000Y-137414000D02*
X71628000Y-137414000D01*
X73918653Y-136393347D02*
X72898000Y-137414000D01*
%TO.N,Net-(U3-Pad4)*%
X92456000Y-137414000D02*
X89662000Y-137414000D01*
X89662000Y-137414000D02*
X88138000Y-135890000D01*
X88138000Y-135890000D02*
X88138000Y-133350000D01*
X87122000Y-132334000D02*
X84836000Y-132334000D01*
X88138000Y-133350000D02*
X87122000Y-132334000D01*
X93726000Y-111252000D02*
X93726000Y-97790000D01*
X93726000Y-97790000D02*
X96774000Y-94742000D01*
X96774000Y-94742000D02*
X104902000Y-94742000D01*
X105156000Y-94996000D02*
X105156000Y-98044000D01*
X104902000Y-94742000D02*
X105156000Y-94996000D01*
%TO.N,Net-(U3-Pad13)*%
X91440000Y-109220000D02*
X91440000Y-119888000D01*
X91440000Y-119888000D02*
X91948000Y-120396000D01*
%TO.N,Net-(D2-Pad2)*%
X86360000Y-107696000D02*
X88138000Y-107696000D01*
X88138000Y-107696000D02*
X89662000Y-109220000D01*
X89662000Y-116078000D02*
X88392000Y-117348000D01*
X89662000Y-109220000D02*
X89662000Y-116078000D01*
%TO.N,Net-(D4-Pad2)*%
X119888000Y-116078000D02*
X118618000Y-117348000D01*
X119888000Y-108712000D02*
X119888000Y-116078000D01*
X116586000Y-107696000D02*
X118872000Y-107696000D01*
X118872000Y-107696000D02*
X119888000Y-108712000D01*
%TO.N,Net-(R2-Pad1)*%
X88900000Y-98044000D02*
X88900000Y-101092000D01*
X88900000Y-101092000D02*
X85090000Y-104902000D01*
X85090000Y-104902000D02*
X82804000Y-104902000D01*
X82804000Y-104902000D02*
X79756000Y-107950000D01*
X79756000Y-116332000D02*
X80772000Y-117348000D01*
X79756000Y-107950000D02*
X79756000Y-116332000D01*
%TO.N,Net-(R4-Pad1)*%
X117602000Y-98044000D02*
X117602000Y-101600000D01*
X117602000Y-101600000D02*
X114554000Y-104648000D01*
X114554000Y-104648000D02*
X110998000Y-104648000D01*
X110998000Y-104648000D02*
X107442000Y-108204000D01*
X107442000Y-113792000D02*
X110998000Y-117348000D01*
X107442000Y-108204000D02*
X107442000Y-113792000D01*
%TO.N,Net-(U3-Pad10)*%
X110998000Y-134874000D02*
X109728000Y-134874000D01*
X109728000Y-134874000D02*
X107696000Y-136906000D01*
X107696000Y-136906000D02*
X107696000Y-142494000D01*
X107696000Y-142494000D02*
X106172000Y-144018000D01*
X106172000Y-144018000D02*
X91440000Y-144018000D01*
X91440000Y-144018000D02*
X88138000Y-140716000D01*
X88138000Y-140716000D02*
X88138000Y-139192000D01*
X86360000Y-137414000D02*
X84836000Y-137414000D01*
X88138000Y-139192000D02*
X86360000Y-137414000D01*
%TO.N,Net-(U3-Pad11)*%
X92456000Y-132334000D02*
X93726000Y-132334000D01*
X93726000Y-132334000D02*
X94996000Y-131064000D01*
X94996000Y-131064000D02*
X94996000Y-128270000D01*
X96012000Y-127254000D02*
X97790000Y-127254000D01*
X94996000Y-128270000D02*
X96012000Y-127254000D01*
%TO.N,Net-(U4-Pad13)*%
X97790000Y-134874000D02*
X99822000Y-134874000D01*
X99822000Y-134874000D02*
X101346000Y-133350000D01*
X101346000Y-133350000D02*
X101346000Y-128778000D01*
X102870000Y-127254000D02*
X105410000Y-127254000D01*
X101346000Y-128778000D02*
X102870000Y-127254000D01*
X94996000Y-111252000D02*
X94996000Y-101600000D01*
X98552000Y-98044000D02*
X101092000Y-98044000D01*
X94996000Y-101600000D02*
X98552000Y-98044000D01*
%TO.N,Net-(U4-Pad10)*%
X101600000Y-136398000D02*
X103124000Y-134874000D01*
X97790000Y-137414000D02*
X101600000Y-137414000D01*
X103124000Y-134874000D02*
X105410000Y-134874000D01*
X101600000Y-137414000D02*
X101600000Y-136398000D01*
X105410000Y-129794000D02*
X103632000Y-129794000D01*
X103124000Y-130302000D02*
X103124000Y-134874000D01*
X103632000Y-129794000D02*
X103124000Y-130302000D01*
X105410000Y-134874000D02*
X107188000Y-134874000D01*
X107188000Y-134874000D02*
X108458000Y-133604000D01*
X108458000Y-133604000D02*
X108458000Y-132588000D01*
X110744000Y-132588000D02*
X110998000Y-132334000D01*
X108458000Y-132588000D02*
X110744000Y-132588000D01*
%TO.N,Net-(U4-Pad11)*%
X105410000Y-132334000D02*
X107188000Y-132334000D01*
X107188000Y-132334000D02*
X108458000Y-131064000D01*
X108458000Y-129794000D02*
X110998000Y-127254000D01*
X108458000Y-131064000D02*
X108458000Y-129794000D01*
%TO.N,+5V*%
X59690000Y-105664000D02*
X55626000Y-105664000D01*
X55626000Y-105664000D02*
X52578000Y-105664000D01*
X52578000Y-105664000D02*
X51816000Y-106426000D01*
X51816000Y-106426000D02*
X51816000Y-119126000D01*
X51816000Y-119126000D02*
X53594000Y-120904000D01*
X61976000Y-120904000D02*
X65786000Y-124714000D01*
X53594000Y-120904000D02*
X61976000Y-120904000D01*
X79248000Y-122682000D02*
X77724000Y-121158000D01*
X69342000Y-121158000D02*
X65786000Y-124714000D01*
X77724000Y-121158000D02*
X69342000Y-121158000D01*
X92456000Y-123190000D02*
X90424000Y-121158000D01*
X90424000Y-121158000D02*
X81026000Y-121158000D01*
X79248000Y-124714000D02*
X79248000Y-122936000D01*
X81026000Y-121158000D02*
X79248000Y-122936000D01*
X79248000Y-122936000D02*
X79248000Y-122682000D01*
X105410000Y-124714000D02*
X105410000Y-123190000D01*
X103378000Y-121158000D02*
X94742000Y-121158000D01*
X94742000Y-121158000D02*
X92456000Y-123444000D01*
X92456000Y-124714000D02*
X92456000Y-123444000D01*
X92456000Y-123444000D02*
X92456000Y-123190000D01*
X118618000Y-123444000D02*
X116332000Y-121158000D01*
X107188000Y-121158000D02*
X105283000Y-123063000D01*
X116332000Y-121158000D02*
X107188000Y-121158000D01*
X105410000Y-123190000D02*
X105283000Y-123063000D01*
X105283000Y-123063000D02*
X103378000Y-121158000D01*
X132080000Y-123190000D02*
X130048000Y-121158000D01*
X130048000Y-121158000D02*
X121158000Y-121158000D01*
X118618000Y-124714000D02*
X118618000Y-123698000D01*
X121158000Y-121158000D02*
X118618000Y-123698000D01*
X118618000Y-123698000D02*
X118618000Y-123444000D01*
X145288000Y-123190000D02*
X143256000Y-121158000D01*
X134366000Y-121158000D02*
X132080000Y-123444000D01*
X132080000Y-124714000D02*
X132080000Y-123444000D01*
X143256000Y-121158000D02*
X134366000Y-121158000D01*
X132080000Y-123444000D02*
X132080000Y-123190000D01*
X158496000Y-124714000D02*
X158496000Y-123444000D01*
X147574000Y-121158000D02*
X145288000Y-123444000D01*
X156210000Y-121158000D02*
X147574000Y-121158000D01*
X145288000Y-124714000D02*
X145288000Y-123444000D01*
X145288000Y-123444000D02*
X145288000Y-123190000D01*
X171196000Y-124714000D02*
X171196000Y-123190000D01*
X169164000Y-121158000D02*
X161036000Y-121158000D01*
X159004000Y-123190000D02*
X158242000Y-123190000D01*
X161036000Y-121158000D02*
X159004000Y-123190000D01*
X158496000Y-123444000D02*
X158242000Y-123190000D01*
X158242000Y-123190000D02*
X156210000Y-121158000D01*
X184404000Y-124714000D02*
X184404000Y-123190000D01*
X184404000Y-123190000D02*
X182372000Y-121158000D01*
X182372000Y-121158000D02*
X173482000Y-121158000D01*
X173482000Y-121158000D02*
X171577000Y-123063000D01*
X171577000Y-123063000D02*
X171069000Y-123063000D01*
X171196000Y-123190000D02*
X171069000Y-123063000D01*
X171069000Y-123063000D02*
X169164000Y-121158000D01*
%TO.N,Net-(U5-Pad12)*%
X123952000Y-108458000D02*
X123952000Y-116586000D01*
X123952000Y-116586000D02*
X122428000Y-118110000D01*
%TO.N,Net-(U5-Pad10)*%
X125984000Y-108458000D02*
X125984000Y-117602000D01*
X125984000Y-117602000D02*
X123952000Y-119634000D01*
%TO.N,Net-(D5-Pad2)*%
X133350000Y-107696000D02*
X131318000Y-107696000D01*
X127762000Y-111252000D02*
X127762000Y-117348000D01*
X131318000Y-107696000D02*
X127762000Y-111252000D01*
%TO.N,Net-(D6-Pad2)*%
X149352000Y-107696000D02*
X151638000Y-107696000D01*
X151638000Y-107696000D02*
X152400000Y-108458000D01*
X152400000Y-116586000D02*
X151638000Y-117348000D01*
X152400000Y-115062000D02*
X152400000Y-116586000D01*
X152400000Y-115062000D02*
X152400000Y-115316000D01*
X152400000Y-108458000D02*
X152400000Y-115062000D01*
%TO.N,Net-(D7-Pad2)*%
X166116000Y-107950000D02*
X169672000Y-107950000D01*
X169672000Y-107950000D02*
X171704000Y-109982000D01*
X171704000Y-109982000D02*
X171704000Y-115824000D01*
X170180000Y-117348000D02*
X168402000Y-117348000D01*
X171704000Y-115824000D02*
X170180000Y-117348000D01*
%TO.N,Net-(R5-Pad1)*%
X143002000Y-98044000D02*
X143002000Y-104902000D01*
X143002000Y-104902000D02*
X138684000Y-109220000D01*
X138684000Y-114046000D02*
X135382000Y-117348000D01*
X138684000Y-109220000D02*
X138684000Y-114046000D01*
%TO.N,Net-(R6-Pad1)*%
X144272000Y-117094000D02*
X144018000Y-117348000D01*
X144272000Y-108966000D02*
X144272000Y-117094000D01*
%TO.N,Net-(R7-Pad1)*%
X185928000Y-120142000D02*
X186690000Y-119380000D01*
X181864000Y-120142000D02*
X185928000Y-120142000D01*
X172212000Y-96520000D02*
X172212000Y-98044000D01*
X157988000Y-114554000D02*
X157988000Y-97998998D01*
X160782000Y-117348000D02*
X157988000Y-114554000D01*
X157988000Y-97998998D02*
X161498998Y-94488000D01*
X170180000Y-94488000D02*
X172212000Y-96520000D01*
X161498998Y-94488000D02*
X170180000Y-94488000D01*
%TO.N,Net-(U5-Pad13)*%
X118618000Y-127254000D02*
X124460000Y-127254000D01*
X155448000Y-143256000D02*
X155448000Y-137922000D01*
X154178000Y-144526000D02*
X155448000Y-143256000D01*
X143256000Y-144526000D02*
X154178000Y-144526000D01*
X141732000Y-143002000D02*
X143256000Y-144526000D01*
X141732000Y-129032000D02*
X141732000Y-143002000D01*
X124460000Y-127254000D02*
X125585001Y-128379001D01*
X155448000Y-137922000D02*
X158496000Y-134874000D01*
X137015001Y-128379001D02*
X137304999Y-128668999D01*
X137304999Y-128668999D02*
X141368999Y-128668999D01*
X125585001Y-128379001D02*
X137015001Y-128379001D01*
X141368999Y-128668999D02*
X141732000Y-129032000D01*
%TO.N,Net-(U5-Pad11)*%
X118618000Y-132334000D02*
X124460000Y-132334000D01*
%TO.N,Net-(U6-Pad3)*%
X124460000Y-129794000D02*
X127000000Y-129794000D01*
X127000000Y-129794000D02*
X127762000Y-130556000D01*
X127762000Y-130556000D02*
X127762000Y-133858000D01*
X126746000Y-134874000D02*
X124460000Y-134874000D01*
X127762000Y-133858000D02*
X126746000Y-134874000D01*
%TO.N,Net-(U6-Pad6)*%
X134874000Y-144018000D02*
X139446000Y-144018000D01*
X139446000Y-144018000D02*
X139700000Y-144018000D01*
%TO.N,Net-(U7-Pad13)*%
X152908000Y-143510000D02*
X147574000Y-143510000D01*
X145288000Y-141224000D02*
X145288000Y-139954000D01*
X147574000Y-143510000D02*
X145288000Y-141224000D01*
X147828000Y-124714000D02*
X145288000Y-127254000D01*
X150876000Y-124714000D02*
X147828000Y-124714000D01*
X145288000Y-127254000D02*
X143510000Y-127254000D01*
X143510000Y-127254000D02*
X142748000Y-128016000D01*
X142748000Y-128016000D02*
X142748000Y-138430000D01*
X144272000Y-139954000D02*
X145288000Y-139954000D01*
X142748000Y-138430000D02*
X144272000Y-139954000D01*
%TO.N,Net-(U7-Pad11)*%
X145288000Y-132334000D02*
X150876000Y-132334000D01*
%TO.N,Net-(U7-Pad10)*%
X139700000Y-120396000D02*
X139700000Y-111506000D01*
X139700000Y-111506000D02*
X144780000Y-106426000D01*
X144780000Y-97236998D02*
X142285002Y-94742000D01*
X144780000Y-106426000D02*
X144780000Y-97236998D01*
X142285002Y-94742000D02*
X132842000Y-94742000D01*
X130810000Y-96774000D02*
X130810000Y-98044000D01*
X132842000Y-94742000D02*
X130810000Y-96774000D01*
%TO.N,Net-(U8-Pad12)*%
X164338000Y-98044000D02*
X164338000Y-101600000D01*
X164338000Y-101600000D02*
X161798000Y-104140000D01*
X161798000Y-104140000D02*
X161798000Y-114808000D01*
X161798000Y-114808000D02*
X163068000Y-116078000D01*
X163068000Y-116078000D02*
X163068000Y-119888000D01*
%TO.N,Net-(U8-Pad13)*%
X158496000Y-127254000D02*
X160020000Y-127254000D01*
X160020000Y-127254000D02*
X161036000Y-128270000D01*
X161036000Y-128270000D02*
X161036000Y-134366000D01*
X161544000Y-134874000D02*
X163576000Y-134874000D01*
X161036000Y-134366000D02*
X161544000Y-134874000D01*
X156464000Y-108204000D02*
X156464000Y-118618000D01*
X156464000Y-118618000D02*
X156718000Y-118872000D01*
%TO.N,Net-(U10-Pad5)*%
X171196000Y-127254000D02*
X168402000Y-127254000D01*
X168402000Y-127254000D02*
X165354000Y-124206000D01*
X165354000Y-124206000D02*
X163576000Y-122428000D01*
X163576000Y-122428000D02*
X161290000Y-122428000D01*
X159524991Y-111518991D02*
X159524991Y-101841009D01*
X160528000Y-100838000D02*
X160528000Y-98044000D01*
X159524991Y-101841009D02*
X160528000Y-100838000D01*
%TO.N,Net-(U10-Pad1)*%
X171196000Y-129794000D02*
X172974000Y-129794000D01*
X172974000Y-129794000D02*
X173990000Y-128778000D01*
X173990000Y-128778000D02*
X173990000Y-125222000D01*
X174498000Y-124714000D02*
X176784000Y-124714000D01*
X173990000Y-125222000D02*
X174498000Y-124714000D01*
%TO.N,Net-(U10-Pad12)*%
X184404000Y-129794000D02*
X182880000Y-129794000D01*
X180340000Y-132334000D02*
X176784000Y-132334000D01*
X182880000Y-129794000D02*
X180340000Y-132334000D01*
X176784000Y-127254000D02*
X175260000Y-128778000D01*
X175260000Y-128778000D02*
X175260000Y-132334000D01*
X176784000Y-132334000D02*
X175260000Y-132334000D01*
X175260000Y-132334000D02*
X171196000Y-132334000D01*
%TO.N,Net-(U9-Pad3)*%
X163576000Y-129794000D02*
X165608000Y-129794000D01*
X165608000Y-129794000D02*
X167894000Y-132080000D01*
X167894000Y-132080000D02*
X167894000Y-136398000D01*
X168910000Y-137414000D02*
X171196000Y-137414000D01*
X167894000Y-136398000D02*
X168910000Y-137414000D01*
%TO.N,Net-(U10-Pad10)*%
X182880000Y-134874000D02*
X184404000Y-134874000D01*
X176784000Y-137414000D02*
X180340000Y-137414000D01*
X180340000Y-137414000D02*
X182880000Y-134874000D01*
%TO.N,GND*%
X181864000Y-110490000D02*
X182118000Y-110236000D01*
X177800000Y-110490000D02*
X178308000Y-110490000D01*
X177800000Y-110490000D02*
X181864000Y-110490000D01*
X175006000Y-110490000D02*
X177800000Y-110490000D01*
%TD*%
M02*
