%TF.GenerationSoftware,KiCad,Pcbnew,(5.1.6)-1*%
%TF.CreationDate,2020-12-20T18:33:49+01:00*%
%TF.ProjectId,Addierer,41646469-6572-4657-922e-6b696361645f,rev?*%
%TF.SameCoordinates,Original*%
%TF.FileFunction,Legend,Top*%
%TF.FilePolarity,Positive*%
%FSLAX46Y46*%
G04 Gerber Fmt 4.6, Leading zero omitted, Abs format (unit mm)*
G04 Created by KiCad (PCBNEW (5.1.6)-1) date 2020-12-20 18:33:49*
%MOMM*%
%LPD*%
G01*
G04 APERTURE LIST*
%ADD10C,0.120000*%
%ADD11C,0.150000*%
G04 APERTURE END LIST*
D10*
%TO.C,D1*%
X71881538Y-105722000D02*
G75*
G02*
X73426830Y-111272000I462J-2990000D01*
G01*
X71882462Y-105722000D02*
G75*
G03*
X70337170Y-111272000I-462J-2990000D01*
G01*
X74382000Y-108712000D02*
G75*
G03*
X74382000Y-108712000I-2500000J0D01*
G01*
X70337000Y-111272000D02*
X73427000Y-111272000D01*
%TO.C,D2*%
X86359538Y-105976000D02*
G75*
G02*
X87904830Y-111526000I462J-2990000D01*
G01*
X86360462Y-105976000D02*
G75*
G03*
X84815170Y-111526000I-462J-2990000D01*
G01*
X88860000Y-108966000D02*
G75*
G03*
X88860000Y-108966000I-2500000J0D01*
G01*
X84815000Y-111526000D02*
X87905000Y-111526000D01*
%TO.C,D3*%
X99293000Y-111272000D02*
X102383000Y-111272000D01*
X103338000Y-108712000D02*
G75*
G03*
X103338000Y-108712000I-2500000J0D01*
G01*
X100838462Y-105722000D02*
G75*
G03*
X99293170Y-111272000I-462J-2990000D01*
G01*
X100837538Y-105722000D02*
G75*
G02*
X102382830Y-111272000I462J-2990000D01*
G01*
%TO.C,D4*%
X115041000Y-111526000D02*
X118131000Y-111526000D01*
X119086000Y-108966000D02*
G75*
G03*
X119086000Y-108966000I-2500000J0D01*
G01*
X116586462Y-105976000D02*
G75*
G03*
X115041170Y-111526000I-462J-2990000D01*
G01*
X116585538Y-105976000D02*
G75*
G02*
X118130830Y-111526000I462J-2990000D01*
G01*
%TO.C,D5*%
X131805000Y-111526000D02*
X134895000Y-111526000D01*
X135850000Y-108966000D02*
G75*
G03*
X135850000Y-108966000I-2500000J0D01*
G01*
X133350462Y-105976000D02*
G75*
G03*
X131805170Y-111526000I-462J-2990000D01*
G01*
X133349538Y-105976000D02*
G75*
G02*
X134894830Y-111526000I462J-2990000D01*
G01*
%TO.C,D6*%
X149351538Y-105976000D02*
G75*
G02*
X150896830Y-111526000I462J-2990000D01*
G01*
X149352462Y-105976000D02*
G75*
G03*
X147807170Y-111526000I-462J-2990000D01*
G01*
X151852000Y-108966000D02*
G75*
G03*
X151852000Y-108966000I-2500000J0D01*
G01*
X147807000Y-111526000D02*
X150897000Y-111526000D01*
%TO.C,D7*%
X166115538Y-106230000D02*
G75*
G02*
X167660830Y-111780000I462J-2990000D01*
G01*
X166116462Y-106230000D02*
G75*
G03*
X164571170Y-111780000I-462J-2990000D01*
G01*
X168616000Y-109220000D02*
G75*
G03*
X168616000Y-109220000I-2500000J0D01*
G01*
X164571000Y-111780000D02*
X167661000Y-111780000D01*
%TO.C,D8*%
X180573000Y-111526000D02*
X183663000Y-111526000D01*
X184618000Y-108966000D02*
G75*
G03*
X184618000Y-108966000I-2500000J0D01*
G01*
X182118462Y-105976000D02*
G75*
G03*
X180573170Y-111526000I-462J-2990000D01*
G01*
X182117538Y-105976000D02*
G75*
G02*
X183662830Y-111526000I462J-2990000D01*
G01*
%TO.C,R1*%
X73628000Y-118718000D02*
X73628000Y-118388000D01*
X67088000Y-118718000D02*
X73628000Y-118718000D01*
X67088000Y-118388000D02*
X67088000Y-118718000D01*
X73628000Y-115978000D02*
X73628000Y-116308000D01*
X67088000Y-115978000D02*
X73628000Y-115978000D01*
X67088000Y-116308000D02*
X67088000Y-115978000D01*
%TO.C,R2*%
X81312000Y-116308000D02*
X81312000Y-115978000D01*
X81312000Y-115978000D02*
X87852000Y-115978000D01*
X87852000Y-115978000D02*
X87852000Y-116308000D01*
X81312000Y-118388000D02*
X81312000Y-118718000D01*
X81312000Y-118718000D02*
X87852000Y-118718000D01*
X87852000Y-118718000D02*
X87852000Y-118388000D01*
%TO.C,R3*%
X102584000Y-118718000D02*
X102584000Y-118388000D01*
X96044000Y-118718000D02*
X102584000Y-118718000D01*
X96044000Y-118388000D02*
X96044000Y-118718000D01*
X102584000Y-115978000D02*
X102584000Y-116308000D01*
X96044000Y-115978000D02*
X102584000Y-115978000D01*
X96044000Y-116308000D02*
X96044000Y-115978000D01*
%TO.C,R4*%
X111538000Y-116308000D02*
X111538000Y-115978000D01*
X111538000Y-115978000D02*
X118078000Y-115978000D01*
X118078000Y-115978000D02*
X118078000Y-116308000D01*
X111538000Y-118388000D02*
X111538000Y-118718000D01*
X111538000Y-118718000D02*
X118078000Y-118718000D01*
X118078000Y-118718000D02*
X118078000Y-118388000D01*
%TO.C,R5*%
X128302000Y-115978000D02*
X128302000Y-116308000D01*
X134842000Y-115978000D02*
X128302000Y-115978000D01*
X134842000Y-116308000D02*
X134842000Y-115978000D01*
X128302000Y-118718000D02*
X128302000Y-118388000D01*
X134842000Y-118718000D02*
X128302000Y-118718000D01*
X134842000Y-118388000D02*
X134842000Y-118718000D01*
%TO.C,R6*%
X144558000Y-116308000D02*
X144558000Y-115978000D01*
X144558000Y-115978000D02*
X151098000Y-115978000D01*
X151098000Y-115978000D02*
X151098000Y-116308000D01*
X144558000Y-118388000D02*
X144558000Y-118718000D01*
X144558000Y-118718000D02*
X151098000Y-118718000D01*
X151098000Y-118718000D02*
X151098000Y-118388000D01*
%TO.C,R7*%
X167862000Y-118718000D02*
X167862000Y-118388000D01*
X161322000Y-118718000D02*
X167862000Y-118718000D01*
X161322000Y-118388000D02*
X161322000Y-118718000D01*
X167862000Y-115978000D02*
X167862000Y-116308000D01*
X161322000Y-115978000D02*
X167862000Y-115978000D01*
X161322000Y-116308000D02*
X161322000Y-115978000D01*
%TO.C,U1*%
X62976000Y-123384000D02*
G75*
G02*
X60976000Y-123384000I-1000000J0D01*
G01*
X60976000Y-123384000D02*
X59326000Y-123384000D01*
X59326000Y-123384000D02*
X59326000Y-141284000D01*
X59326000Y-141284000D02*
X64626000Y-141284000D01*
X64626000Y-141284000D02*
X64626000Y-123384000D01*
X64626000Y-123384000D02*
X62976000Y-123384000D01*
X56836000Y-123324000D02*
X56836000Y-141344000D01*
X56836000Y-141344000D02*
X67116000Y-141344000D01*
X67116000Y-141344000D02*
X67116000Y-123324000D01*
X67116000Y-123324000D02*
X56836000Y-123324000D01*
%TO.C,U2*%
X76438000Y-123384000D02*
G75*
G02*
X74438000Y-123384000I-1000000J0D01*
G01*
X74438000Y-123384000D02*
X72788000Y-123384000D01*
X72788000Y-123384000D02*
X72788000Y-141284000D01*
X72788000Y-141284000D02*
X78088000Y-141284000D01*
X78088000Y-141284000D02*
X78088000Y-123384000D01*
X78088000Y-123384000D02*
X76438000Y-123384000D01*
X70298000Y-123324000D02*
X70298000Y-141344000D01*
X70298000Y-141344000D02*
X80578000Y-141344000D01*
X80578000Y-141344000D02*
X80578000Y-123324000D01*
X80578000Y-123324000D02*
X70298000Y-123324000D01*
%TO.C,U3*%
X93786000Y-123324000D02*
X83506000Y-123324000D01*
X93786000Y-141344000D02*
X93786000Y-123324000D01*
X83506000Y-141344000D02*
X93786000Y-141344000D01*
X83506000Y-123324000D02*
X83506000Y-141344000D01*
X91296000Y-123384000D02*
X89646000Y-123384000D01*
X91296000Y-141284000D02*
X91296000Y-123384000D01*
X85996000Y-141284000D02*
X91296000Y-141284000D01*
X85996000Y-123384000D02*
X85996000Y-141284000D01*
X87646000Y-123384000D02*
X85996000Y-123384000D01*
X89646000Y-123384000D02*
G75*
G02*
X87646000Y-123384000I-1000000J0D01*
G01*
%TO.C,U4*%
X102600000Y-123384000D02*
G75*
G02*
X100600000Y-123384000I-1000000J0D01*
G01*
X100600000Y-123384000D02*
X98950000Y-123384000D01*
X98950000Y-123384000D02*
X98950000Y-141284000D01*
X98950000Y-141284000D02*
X104250000Y-141284000D01*
X104250000Y-141284000D02*
X104250000Y-123384000D01*
X104250000Y-123384000D02*
X102600000Y-123384000D01*
X96460000Y-123324000D02*
X96460000Y-141344000D01*
X96460000Y-141344000D02*
X106740000Y-141344000D01*
X106740000Y-141344000D02*
X106740000Y-123324000D01*
X106740000Y-123324000D02*
X96460000Y-123324000D01*
%TO.C,U5*%
X119948000Y-123324000D02*
X109668000Y-123324000D01*
X119948000Y-141344000D02*
X119948000Y-123324000D01*
X109668000Y-141344000D02*
X119948000Y-141344000D01*
X109668000Y-123324000D02*
X109668000Y-141344000D01*
X117458000Y-123384000D02*
X115808000Y-123384000D01*
X117458000Y-141284000D02*
X117458000Y-123384000D01*
X112158000Y-141284000D02*
X117458000Y-141284000D01*
X112158000Y-123384000D02*
X112158000Y-141284000D01*
X113808000Y-123384000D02*
X112158000Y-123384000D01*
X115808000Y-123384000D02*
G75*
G02*
X113808000Y-123384000I-1000000J0D01*
G01*
%TO.C,U6*%
X129270000Y-123384000D02*
G75*
G02*
X127270000Y-123384000I-1000000J0D01*
G01*
X127270000Y-123384000D02*
X125620000Y-123384000D01*
X125620000Y-123384000D02*
X125620000Y-141284000D01*
X125620000Y-141284000D02*
X130920000Y-141284000D01*
X130920000Y-141284000D02*
X130920000Y-123384000D01*
X130920000Y-123384000D02*
X129270000Y-123384000D01*
X123130000Y-123324000D02*
X123130000Y-141344000D01*
X123130000Y-141344000D02*
X133410000Y-141344000D01*
X133410000Y-141344000D02*
X133410000Y-123324000D01*
X133410000Y-123324000D02*
X123130000Y-123324000D01*
%TO.C,U7*%
X146618000Y-123324000D02*
X136338000Y-123324000D01*
X146618000Y-141344000D02*
X146618000Y-123324000D01*
X136338000Y-141344000D02*
X146618000Y-141344000D01*
X136338000Y-123324000D02*
X136338000Y-141344000D01*
X144128000Y-123384000D02*
X142478000Y-123384000D01*
X144128000Y-141284000D02*
X144128000Y-123384000D01*
X138828000Y-141284000D02*
X144128000Y-141284000D01*
X138828000Y-123384000D02*
X138828000Y-141284000D01*
X140478000Y-123384000D02*
X138828000Y-123384000D01*
X142478000Y-123384000D02*
G75*
G02*
X140478000Y-123384000I-1000000J0D01*
G01*
%TO.C,U8*%
X155686000Y-123384000D02*
G75*
G02*
X153686000Y-123384000I-1000000J0D01*
G01*
X153686000Y-123384000D02*
X152036000Y-123384000D01*
X152036000Y-123384000D02*
X152036000Y-141284000D01*
X152036000Y-141284000D02*
X157336000Y-141284000D01*
X157336000Y-141284000D02*
X157336000Y-123384000D01*
X157336000Y-123384000D02*
X155686000Y-123384000D01*
X149546000Y-123324000D02*
X149546000Y-141344000D01*
X149546000Y-141344000D02*
X159826000Y-141344000D01*
X159826000Y-141344000D02*
X159826000Y-123324000D01*
X159826000Y-123324000D02*
X149546000Y-123324000D01*
%TO.C,U9*%
X172526000Y-123324000D02*
X162246000Y-123324000D01*
X172526000Y-141344000D02*
X172526000Y-123324000D01*
X162246000Y-141344000D02*
X172526000Y-141344000D01*
X162246000Y-123324000D02*
X162246000Y-141344000D01*
X170036000Y-123384000D02*
X168386000Y-123384000D01*
X170036000Y-141284000D02*
X170036000Y-123384000D01*
X164736000Y-141284000D02*
X170036000Y-141284000D01*
X164736000Y-123384000D02*
X164736000Y-141284000D01*
X166386000Y-123384000D02*
X164736000Y-123384000D01*
X168386000Y-123384000D02*
G75*
G02*
X166386000Y-123384000I-1000000J0D01*
G01*
%TO.C,U10*%
X185734000Y-123324000D02*
X175454000Y-123324000D01*
X185734000Y-141344000D02*
X185734000Y-123324000D01*
X175454000Y-141344000D02*
X185734000Y-141344000D01*
X175454000Y-123324000D02*
X175454000Y-141344000D01*
X183244000Y-123384000D02*
X181594000Y-123384000D01*
X183244000Y-141284000D02*
X183244000Y-123384000D01*
X177944000Y-141284000D02*
X183244000Y-141284000D01*
X177944000Y-123384000D02*
X177944000Y-141284000D01*
X179594000Y-123384000D02*
X177944000Y-123384000D01*
X181594000Y-123384000D02*
G75*
G02*
X179594000Y-123384000I-1000000J0D01*
G01*
%TO.C,R8*%
X183864000Y-118718000D02*
X183864000Y-118388000D01*
X177324000Y-118718000D02*
X183864000Y-118718000D01*
X177324000Y-118388000D02*
X177324000Y-118718000D01*
X183864000Y-115978000D02*
X183864000Y-116308000D01*
X177324000Y-115978000D02*
X183864000Y-115978000D01*
X177324000Y-116308000D02*
X177324000Y-115978000D01*
%TO.C,GND1*%
D11*
X58451904Y-111514000D02*
X58356666Y-111466380D01*
X58213809Y-111466380D01*
X58070952Y-111514000D01*
X57975714Y-111609238D01*
X57928095Y-111704476D01*
X57880476Y-111894952D01*
X57880476Y-112037809D01*
X57928095Y-112228285D01*
X57975714Y-112323523D01*
X58070952Y-112418761D01*
X58213809Y-112466380D01*
X58309047Y-112466380D01*
X58451904Y-112418761D01*
X58499523Y-112371142D01*
X58499523Y-112037809D01*
X58309047Y-112037809D01*
X58928095Y-112466380D02*
X58928095Y-111466380D01*
X59499523Y-112466380D01*
X59499523Y-111466380D01*
X59975714Y-112466380D02*
X59975714Y-111466380D01*
X60213809Y-111466380D01*
X60356666Y-111514000D01*
X60451904Y-111609238D01*
X60499523Y-111704476D01*
X60547142Y-111894952D01*
X60547142Y-112037809D01*
X60499523Y-112228285D01*
X60451904Y-112323523D01*
X60356666Y-112418761D01*
X60213809Y-112466380D01*
X59975714Y-112466380D01*
X61499523Y-112466380D02*
X60928095Y-112466380D01*
X61213809Y-112466380D02*
X61213809Y-111466380D01*
X61118571Y-111609238D01*
X61023333Y-111704476D01*
X60928095Y-111752095D01*
%TO.C,Vcc1*%
X58531333Y-102322380D02*
X58864666Y-103322380D01*
X59198000Y-102322380D01*
X59959904Y-103274761D02*
X59864666Y-103322380D01*
X59674190Y-103322380D01*
X59578952Y-103274761D01*
X59531333Y-103227142D01*
X59483714Y-103131904D01*
X59483714Y-102846190D01*
X59531333Y-102750952D01*
X59578952Y-102703333D01*
X59674190Y-102655714D01*
X59864666Y-102655714D01*
X59959904Y-102703333D01*
X60817047Y-103274761D02*
X60721809Y-103322380D01*
X60531333Y-103322380D01*
X60436095Y-103274761D01*
X60388476Y-103227142D01*
X60340857Y-103131904D01*
X60340857Y-102846190D01*
X60388476Y-102750952D01*
X60436095Y-102703333D01*
X60531333Y-102655714D01*
X60721809Y-102655714D01*
X60817047Y-102703333D01*
X61769428Y-103322380D02*
X61198000Y-103322380D01*
X61483714Y-103322380D02*
X61483714Y-102322380D01*
X61388476Y-102465238D01*
X61293238Y-102560476D01*
X61198000Y-102608095D01*
%TO.C,*%
%TO.C,a1*%
X76954095Y-95956380D02*
X76954095Y-95432571D01*
X76906476Y-95337333D01*
X76811238Y-95289714D01*
X76620761Y-95289714D01*
X76525523Y-95337333D01*
X76954095Y-95908761D02*
X76858857Y-95956380D01*
X76620761Y-95956380D01*
X76525523Y-95908761D01*
X76477904Y-95813523D01*
X76477904Y-95718285D01*
X76525523Y-95623047D01*
X76620761Y-95575428D01*
X76858857Y-95575428D01*
X76954095Y-95527809D01*
X77954095Y-95956380D02*
X77382666Y-95956380D01*
X77668380Y-95956380D02*
X77668380Y-94956380D01*
X77573142Y-95099238D01*
X77477904Y-95194476D01*
X77382666Y-95242095D01*
%TO.C,a2*%
X104894095Y-95956380D02*
X104894095Y-95432571D01*
X104846476Y-95337333D01*
X104751238Y-95289714D01*
X104560761Y-95289714D01*
X104465523Y-95337333D01*
X104894095Y-95908761D02*
X104798857Y-95956380D01*
X104560761Y-95956380D01*
X104465523Y-95908761D01*
X104417904Y-95813523D01*
X104417904Y-95718285D01*
X104465523Y-95623047D01*
X104560761Y-95575428D01*
X104798857Y-95575428D01*
X104894095Y-95527809D01*
X105322666Y-95051619D02*
X105370285Y-95004000D01*
X105465523Y-94956380D01*
X105703619Y-94956380D01*
X105798857Y-95004000D01*
X105846476Y-95051619D01*
X105894095Y-95146857D01*
X105894095Y-95242095D01*
X105846476Y-95384952D01*
X105275047Y-95956380D01*
X105894095Y-95956380D01*
%TO.C,a3*%
X134358095Y-95956380D02*
X134358095Y-95432571D01*
X134310476Y-95337333D01*
X134215238Y-95289714D01*
X134024761Y-95289714D01*
X133929523Y-95337333D01*
X134358095Y-95908761D02*
X134262857Y-95956380D01*
X134024761Y-95956380D01*
X133929523Y-95908761D01*
X133881904Y-95813523D01*
X133881904Y-95718285D01*
X133929523Y-95623047D01*
X134024761Y-95575428D01*
X134262857Y-95575428D01*
X134358095Y-95527809D01*
X134739047Y-94956380D02*
X135358095Y-94956380D01*
X135024761Y-95337333D01*
X135167619Y-95337333D01*
X135262857Y-95384952D01*
X135310476Y-95432571D01*
X135358095Y-95527809D01*
X135358095Y-95765904D01*
X135310476Y-95861142D01*
X135262857Y-95908761D01*
X135167619Y-95956380D01*
X134881904Y-95956380D01*
X134786666Y-95908761D01*
X134739047Y-95861142D01*
%TO.C,a4*%
X163822095Y-95956380D02*
X163822095Y-95432571D01*
X163774476Y-95337333D01*
X163679238Y-95289714D01*
X163488761Y-95289714D01*
X163393523Y-95337333D01*
X163822095Y-95908761D02*
X163726857Y-95956380D01*
X163488761Y-95956380D01*
X163393523Y-95908761D01*
X163345904Y-95813523D01*
X163345904Y-95718285D01*
X163393523Y-95623047D01*
X163488761Y-95575428D01*
X163726857Y-95575428D01*
X163822095Y-95527809D01*
X164726857Y-95289714D02*
X164726857Y-95956380D01*
X164488761Y-94908761D02*
X164250666Y-95623047D01*
X164869714Y-95623047D01*
%TO.C,b1*%
X80335523Y-95956380D02*
X80335523Y-94956380D01*
X80335523Y-95337333D02*
X80430761Y-95289714D01*
X80621238Y-95289714D01*
X80716476Y-95337333D01*
X80764095Y-95384952D01*
X80811714Y-95480190D01*
X80811714Y-95765904D01*
X80764095Y-95861142D01*
X80716476Y-95908761D01*
X80621238Y-95956380D01*
X80430761Y-95956380D01*
X80335523Y-95908761D01*
X81764095Y-95956380D02*
X81192666Y-95956380D01*
X81478380Y-95956380D02*
X81478380Y-94956380D01*
X81383142Y-95099238D01*
X81287904Y-95194476D01*
X81192666Y-95242095D01*
%TO.C,b2*%
X108529523Y-95956380D02*
X108529523Y-94956380D01*
X108529523Y-95337333D02*
X108624761Y-95289714D01*
X108815238Y-95289714D01*
X108910476Y-95337333D01*
X108958095Y-95384952D01*
X109005714Y-95480190D01*
X109005714Y-95765904D01*
X108958095Y-95861142D01*
X108910476Y-95908761D01*
X108815238Y-95956380D01*
X108624761Y-95956380D01*
X108529523Y-95908761D01*
X109386666Y-95051619D02*
X109434285Y-95004000D01*
X109529523Y-94956380D01*
X109767619Y-94956380D01*
X109862857Y-95004000D01*
X109910476Y-95051619D01*
X109958095Y-95146857D01*
X109958095Y-95242095D01*
X109910476Y-95384952D01*
X109339047Y-95956380D01*
X109958095Y-95956380D01*
%TO.C,b3*%
X138247523Y-95956380D02*
X138247523Y-94956380D01*
X138247523Y-95337333D02*
X138342761Y-95289714D01*
X138533238Y-95289714D01*
X138628476Y-95337333D01*
X138676095Y-95384952D01*
X138723714Y-95480190D01*
X138723714Y-95765904D01*
X138676095Y-95861142D01*
X138628476Y-95908761D01*
X138533238Y-95956380D01*
X138342761Y-95956380D01*
X138247523Y-95908761D01*
X139057047Y-94956380D02*
X139676095Y-94956380D01*
X139342761Y-95337333D01*
X139485619Y-95337333D01*
X139580857Y-95384952D01*
X139628476Y-95432571D01*
X139676095Y-95527809D01*
X139676095Y-95765904D01*
X139628476Y-95861142D01*
X139580857Y-95908761D01*
X139485619Y-95956380D01*
X139199904Y-95956380D01*
X139104666Y-95908761D01*
X139057047Y-95861142D01*
%TO.C,b4*%
X167203523Y-95956380D02*
X167203523Y-94956380D01*
X167203523Y-95337333D02*
X167298761Y-95289714D01*
X167489238Y-95289714D01*
X167584476Y-95337333D01*
X167632095Y-95384952D01*
X167679714Y-95480190D01*
X167679714Y-95765904D01*
X167632095Y-95861142D01*
X167584476Y-95908761D01*
X167489238Y-95956380D01*
X167298761Y-95956380D01*
X167203523Y-95908761D01*
X168536857Y-95289714D02*
X168536857Y-95956380D01*
X168298761Y-94908761D02*
X168060666Y-95623047D01*
X168679714Y-95623047D01*
%TO.C,D1*%
X71143904Y-104592380D02*
X71143904Y-103592380D01*
X71382000Y-103592380D01*
X71524857Y-103640000D01*
X71620095Y-103735238D01*
X71667714Y-103830476D01*
X71715333Y-104020952D01*
X71715333Y-104163809D01*
X71667714Y-104354285D01*
X71620095Y-104449523D01*
X71524857Y-104544761D01*
X71382000Y-104592380D01*
X71143904Y-104592380D01*
X72667714Y-104592380D02*
X72096285Y-104592380D01*
X72382000Y-104592380D02*
X72382000Y-103592380D01*
X72286761Y-103735238D01*
X72191523Y-103830476D01*
X72096285Y-103878095D01*
%TO.C,D2*%
X85367904Y-104592380D02*
X85367904Y-103592380D01*
X85606000Y-103592380D01*
X85748857Y-103640000D01*
X85844095Y-103735238D01*
X85891714Y-103830476D01*
X85939333Y-104020952D01*
X85939333Y-104163809D01*
X85891714Y-104354285D01*
X85844095Y-104449523D01*
X85748857Y-104544761D01*
X85606000Y-104592380D01*
X85367904Y-104592380D01*
X86320285Y-103687619D02*
X86367904Y-103640000D01*
X86463142Y-103592380D01*
X86701238Y-103592380D01*
X86796476Y-103640000D01*
X86844095Y-103687619D01*
X86891714Y-103782857D01*
X86891714Y-103878095D01*
X86844095Y-104020952D01*
X86272666Y-104592380D01*
X86891714Y-104592380D01*
%TO.C,D3*%
X100099904Y-104592380D02*
X100099904Y-103592380D01*
X100338000Y-103592380D01*
X100480857Y-103640000D01*
X100576095Y-103735238D01*
X100623714Y-103830476D01*
X100671333Y-104020952D01*
X100671333Y-104163809D01*
X100623714Y-104354285D01*
X100576095Y-104449523D01*
X100480857Y-104544761D01*
X100338000Y-104592380D01*
X100099904Y-104592380D01*
X101004666Y-103592380D02*
X101623714Y-103592380D01*
X101290380Y-103973333D01*
X101433238Y-103973333D01*
X101528476Y-104020952D01*
X101576095Y-104068571D01*
X101623714Y-104163809D01*
X101623714Y-104401904D01*
X101576095Y-104497142D01*
X101528476Y-104544761D01*
X101433238Y-104592380D01*
X101147523Y-104592380D01*
X101052285Y-104544761D01*
X101004666Y-104497142D01*
%TO.C,D4*%
X116101904Y-104592380D02*
X116101904Y-103592380D01*
X116340000Y-103592380D01*
X116482857Y-103640000D01*
X116578095Y-103735238D01*
X116625714Y-103830476D01*
X116673333Y-104020952D01*
X116673333Y-104163809D01*
X116625714Y-104354285D01*
X116578095Y-104449523D01*
X116482857Y-104544761D01*
X116340000Y-104592380D01*
X116101904Y-104592380D01*
X117530476Y-103925714D02*
X117530476Y-104592380D01*
X117292380Y-103544761D02*
X117054285Y-104259047D01*
X117673333Y-104259047D01*
%TO.C,D5*%
X132357904Y-104592380D02*
X132357904Y-103592380D01*
X132596000Y-103592380D01*
X132738857Y-103640000D01*
X132834095Y-103735238D01*
X132881714Y-103830476D01*
X132929333Y-104020952D01*
X132929333Y-104163809D01*
X132881714Y-104354285D01*
X132834095Y-104449523D01*
X132738857Y-104544761D01*
X132596000Y-104592380D01*
X132357904Y-104592380D01*
X133834095Y-103592380D02*
X133357904Y-103592380D01*
X133310285Y-104068571D01*
X133357904Y-104020952D01*
X133453142Y-103973333D01*
X133691238Y-103973333D01*
X133786476Y-104020952D01*
X133834095Y-104068571D01*
X133881714Y-104163809D01*
X133881714Y-104401904D01*
X133834095Y-104497142D01*
X133786476Y-104544761D01*
X133691238Y-104592380D01*
X133453142Y-104592380D01*
X133357904Y-104544761D01*
X133310285Y-104497142D01*
%TO.C,D6*%
X148613904Y-104592380D02*
X148613904Y-103592380D01*
X148852000Y-103592380D01*
X148994857Y-103640000D01*
X149090095Y-103735238D01*
X149137714Y-103830476D01*
X149185333Y-104020952D01*
X149185333Y-104163809D01*
X149137714Y-104354285D01*
X149090095Y-104449523D01*
X148994857Y-104544761D01*
X148852000Y-104592380D01*
X148613904Y-104592380D01*
X150042476Y-103592380D02*
X149852000Y-103592380D01*
X149756761Y-103640000D01*
X149709142Y-103687619D01*
X149613904Y-103830476D01*
X149566285Y-104020952D01*
X149566285Y-104401904D01*
X149613904Y-104497142D01*
X149661523Y-104544761D01*
X149756761Y-104592380D01*
X149947238Y-104592380D01*
X150042476Y-104544761D01*
X150090095Y-104497142D01*
X150137714Y-104401904D01*
X150137714Y-104163809D01*
X150090095Y-104068571D01*
X150042476Y-104020952D01*
X149947238Y-103973333D01*
X149756761Y-103973333D01*
X149661523Y-104020952D01*
X149613904Y-104068571D01*
X149566285Y-104163809D01*
%TO.C,D7*%
X165377904Y-104592380D02*
X165377904Y-103592380D01*
X165616000Y-103592380D01*
X165758857Y-103640000D01*
X165854095Y-103735238D01*
X165901714Y-103830476D01*
X165949333Y-104020952D01*
X165949333Y-104163809D01*
X165901714Y-104354285D01*
X165854095Y-104449523D01*
X165758857Y-104544761D01*
X165616000Y-104592380D01*
X165377904Y-104592380D01*
X166282666Y-103592380D02*
X166949333Y-103592380D01*
X166520761Y-104592380D01*
%TO.C,D8*%
X181379904Y-104592380D02*
X181379904Y-103592380D01*
X181618000Y-103592380D01*
X181760857Y-103640000D01*
X181856095Y-103735238D01*
X181903714Y-103830476D01*
X181951333Y-104020952D01*
X181951333Y-104163809D01*
X181903714Y-104354285D01*
X181856095Y-104449523D01*
X181760857Y-104544761D01*
X181618000Y-104592380D01*
X181379904Y-104592380D01*
X182522761Y-104020952D02*
X182427523Y-103973333D01*
X182379904Y-103925714D01*
X182332285Y-103830476D01*
X182332285Y-103782857D01*
X182379904Y-103687619D01*
X182427523Y-103640000D01*
X182522761Y-103592380D01*
X182713238Y-103592380D01*
X182808476Y-103640000D01*
X182856095Y-103687619D01*
X182903714Y-103782857D01*
X182903714Y-103830476D01*
X182856095Y-103925714D01*
X182808476Y-103973333D01*
X182713238Y-104020952D01*
X182522761Y-104020952D01*
X182427523Y-104068571D01*
X182379904Y-104116190D01*
X182332285Y-104211428D01*
X182332285Y-104401904D01*
X182379904Y-104497142D01*
X182427523Y-104544761D01*
X182522761Y-104592380D01*
X182713238Y-104592380D01*
X182808476Y-104544761D01*
X182856095Y-104497142D01*
X182903714Y-104401904D01*
X182903714Y-104211428D01*
X182856095Y-104116190D01*
X182808476Y-104068571D01*
X182713238Y-104020952D01*
%TO.C,GND1*%
X54133904Y-111514000D02*
X54038666Y-111466380D01*
X53895809Y-111466380D01*
X53752952Y-111514000D01*
X53657714Y-111609238D01*
X53610095Y-111704476D01*
X53562476Y-111894952D01*
X53562476Y-112037809D01*
X53610095Y-112228285D01*
X53657714Y-112323523D01*
X53752952Y-112418761D01*
X53895809Y-112466380D01*
X53991047Y-112466380D01*
X54133904Y-112418761D01*
X54181523Y-112371142D01*
X54181523Y-112037809D01*
X53991047Y-112037809D01*
X54610095Y-112466380D02*
X54610095Y-111466380D01*
X55181523Y-112466380D01*
X55181523Y-111466380D01*
X55657714Y-112466380D02*
X55657714Y-111466380D01*
X55895809Y-111466380D01*
X56038666Y-111514000D01*
X56133904Y-111609238D01*
X56181523Y-111704476D01*
X56229142Y-111894952D01*
X56229142Y-112037809D01*
X56181523Y-112228285D01*
X56133904Y-112323523D01*
X56038666Y-112418761D01*
X55895809Y-112466380D01*
X55657714Y-112466380D01*
X57181523Y-112466380D02*
X56610095Y-112466380D01*
X56895809Y-112466380D02*
X56895809Y-111466380D01*
X56800571Y-111609238D01*
X56705333Y-111704476D01*
X56610095Y-111752095D01*
%TO.C,R1*%
X69683333Y-120594380D02*
X69350000Y-120118190D01*
X69111904Y-120594380D02*
X69111904Y-119594380D01*
X69492857Y-119594380D01*
X69588095Y-119642000D01*
X69635714Y-119689619D01*
X69683333Y-119784857D01*
X69683333Y-119927714D01*
X69635714Y-120022952D01*
X69588095Y-120070571D01*
X69492857Y-120118190D01*
X69111904Y-120118190D01*
X70635714Y-120594380D02*
X70064285Y-120594380D01*
X70350000Y-120594380D02*
X70350000Y-119594380D01*
X70254761Y-119737238D01*
X70159523Y-119832476D01*
X70064285Y-119880095D01*
%TO.C,R2*%
X84161333Y-120594380D02*
X83828000Y-120118190D01*
X83589904Y-120594380D02*
X83589904Y-119594380D01*
X83970857Y-119594380D01*
X84066095Y-119642000D01*
X84113714Y-119689619D01*
X84161333Y-119784857D01*
X84161333Y-119927714D01*
X84113714Y-120022952D01*
X84066095Y-120070571D01*
X83970857Y-120118190D01*
X83589904Y-120118190D01*
X84542285Y-119689619D02*
X84589904Y-119642000D01*
X84685142Y-119594380D01*
X84923238Y-119594380D01*
X85018476Y-119642000D01*
X85066095Y-119689619D01*
X85113714Y-119784857D01*
X85113714Y-119880095D01*
X85066095Y-120022952D01*
X84494666Y-120594380D01*
X85113714Y-120594380D01*
%TO.C,R3*%
X99401333Y-120594380D02*
X99068000Y-120118190D01*
X98829904Y-120594380D02*
X98829904Y-119594380D01*
X99210857Y-119594380D01*
X99306095Y-119642000D01*
X99353714Y-119689619D01*
X99401333Y-119784857D01*
X99401333Y-119927714D01*
X99353714Y-120022952D01*
X99306095Y-120070571D01*
X99210857Y-120118190D01*
X98829904Y-120118190D01*
X99734666Y-119594380D02*
X100353714Y-119594380D01*
X100020380Y-119975333D01*
X100163238Y-119975333D01*
X100258476Y-120022952D01*
X100306095Y-120070571D01*
X100353714Y-120165809D01*
X100353714Y-120403904D01*
X100306095Y-120499142D01*
X100258476Y-120546761D01*
X100163238Y-120594380D01*
X99877523Y-120594380D01*
X99782285Y-120546761D01*
X99734666Y-120499142D01*
%TO.C,R4*%
X114387333Y-120594380D02*
X114054000Y-120118190D01*
X113815904Y-120594380D02*
X113815904Y-119594380D01*
X114196857Y-119594380D01*
X114292095Y-119642000D01*
X114339714Y-119689619D01*
X114387333Y-119784857D01*
X114387333Y-119927714D01*
X114339714Y-120022952D01*
X114292095Y-120070571D01*
X114196857Y-120118190D01*
X113815904Y-120118190D01*
X115244476Y-119927714D02*
X115244476Y-120594380D01*
X115006380Y-119546761D02*
X114768285Y-120261047D01*
X115387333Y-120261047D01*
%TO.C,R5*%
X131659333Y-120594380D02*
X131326000Y-120118190D01*
X131087904Y-120594380D02*
X131087904Y-119594380D01*
X131468857Y-119594380D01*
X131564095Y-119642000D01*
X131611714Y-119689619D01*
X131659333Y-119784857D01*
X131659333Y-119927714D01*
X131611714Y-120022952D01*
X131564095Y-120070571D01*
X131468857Y-120118190D01*
X131087904Y-120118190D01*
X132564095Y-119594380D02*
X132087904Y-119594380D01*
X132040285Y-120070571D01*
X132087904Y-120022952D01*
X132183142Y-119975333D01*
X132421238Y-119975333D01*
X132516476Y-120022952D01*
X132564095Y-120070571D01*
X132611714Y-120165809D01*
X132611714Y-120403904D01*
X132564095Y-120499142D01*
X132516476Y-120546761D01*
X132421238Y-120594380D01*
X132183142Y-120594380D01*
X132087904Y-120546761D01*
X132040285Y-120499142D01*
%TO.C,R6*%
X147661333Y-120594380D02*
X147328000Y-120118190D01*
X147089904Y-120594380D02*
X147089904Y-119594380D01*
X147470857Y-119594380D01*
X147566095Y-119642000D01*
X147613714Y-119689619D01*
X147661333Y-119784857D01*
X147661333Y-119927714D01*
X147613714Y-120022952D01*
X147566095Y-120070571D01*
X147470857Y-120118190D01*
X147089904Y-120118190D01*
X148518476Y-119594380D02*
X148328000Y-119594380D01*
X148232761Y-119642000D01*
X148185142Y-119689619D01*
X148089904Y-119832476D01*
X148042285Y-120022952D01*
X148042285Y-120403904D01*
X148089904Y-120499142D01*
X148137523Y-120546761D01*
X148232761Y-120594380D01*
X148423238Y-120594380D01*
X148518476Y-120546761D01*
X148566095Y-120499142D01*
X148613714Y-120403904D01*
X148613714Y-120165809D01*
X148566095Y-120070571D01*
X148518476Y-120022952D01*
X148423238Y-119975333D01*
X148232761Y-119975333D01*
X148137523Y-120022952D01*
X148089904Y-120070571D01*
X148042285Y-120165809D01*
%TO.C,R7*%
X164679333Y-120594380D02*
X164346000Y-120118190D01*
X164107904Y-120594380D02*
X164107904Y-119594380D01*
X164488857Y-119594380D01*
X164584095Y-119642000D01*
X164631714Y-119689619D01*
X164679333Y-119784857D01*
X164679333Y-119927714D01*
X164631714Y-120022952D01*
X164584095Y-120070571D01*
X164488857Y-120118190D01*
X164107904Y-120118190D01*
X165012666Y-119594380D02*
X165679333Y-119594380D01*
X165250761Y-120594380D01*
%TO.C,S1*%
X84074095Y-95908761D02*
X84216952Y-95956380D01*
X84455047Y-95956380D01*
X84550285Y-95908761D01*
X84597904Y-95861142D01*
X84645523Y-95765904D01*
X84645523Y-95670666D01*
X84597904Y-95575428D01*
X84550285Y-95527809D01*
X84455047Y-95480190D01*
X84264571Y-95432571D01*
X84169333Y-95384952D01*
X84121714Y-95337333D01*
X84074095Y-95242095D01*
X84074095Y-95146857D01*
X84121714Y-95051619D01*
X84169333Y-95004000D01*
X84264571Y-94956380D01*
X84502666Y-94956380D01*
X84645523Y-95004000D01*
X85597904Y-95956380D02*
X85026476Y-95956380D01*
X85312190Y-95956380D02*
X85312190Y-94956380D01*
X85216952Y-95099238D01*
X85121714Y-95194476D01*
X85026476Y-95242095D01*
%TO.C,S2*%
X113030095Y-95908761D02*
X113172952Y-95956380D01*
X113411047Y-95956380D01*
X113506285Y-95908761D01*
X113553904Y-95861142D01*
X113601523Y-95765904D01*
X113601523Y-95670666D01*
X113553904Y-95575428D01*
X113506285Y-95527809D01*
X113411047Y-95480190D01*
X113220571Y-95432571D01*
X113125333Y-95384952D01*
X113077714Y-95337333D01*
X113030095Y-95242095D01*
X113030095Y-95146857D01*
X113077714Y-95051619D01*
X113125333Y-95004000D01*
X113220571Y-94956380D01*
X113458666Y-94956380D01*
X113601523Y-95004000D01*
X113982476Y-95051619D02*
X114030095Y-95004000D01*
X114125333Y-94956380D01*
X114363428Y-94956380D01*
X114458666Y-95004000D01*
X114506285Y-95051619D01*
X114553904Y-95146857D01*
X114553904Y-95242095D01*
X114506285Y-95384952D01*
X113934857Y-95956380D01*
X114553904Y-95956380D01*
%TO.C,S3*%
X142240095Y-95908761D02*
X142382952Y-95956380D01*
X142621047Y-95956380D01*
X142716285Y-95908761D01*
X142763904Y-95861142D01*
X142811523Y-95765904D01*
X142811523Y-95670666D01*
X142763904Y-95575428D01*
X142716285Y-95527809D01*
X142621047Y-95480190D01*
X142430571Y-95432571D01*
X142335333Y-95384952D01*
X142287714Y-95337333D01*
X142240095Y-95242095D01*
X142240095Y-95146857D01*
X142287714Y-95051619D01*
X142335333Y-95004000D01*
X142430571Y-94956380D01*
X142668666Y-94956380D01*
X142811523Y-95004000D01*
X143144857Y-94956380D02*
X143763904Y-94956380D01*
X143430571Y-95337333D01*
X143573428Y-95337333D01*
X143668666Y-95384952D01*
X143716285Y-95432571D01*
X143763904Y-95527809D01*
X143763904Y-95765904D01*
X143716285Y-95861142D01*
X143668666Y-95908761D01*
X143573428Y-95956380D01*
X143287714Y-95956380D01*
X143192476Y-95908761D01*
X143144857Y-95861142D01*
%TO.C,S4*%
X171196095Y-95908761D02*
X171338952Y-95956380D01*
X171577047Y-95956380D01*
X171672285Y-95908761D01*
X171719904Y-95861142D01*
X171767523Y-95765904D01*
X171767523Y-95670666D01*
X171719904Y-95575428D01*
X171672285Y-95527809D01*
X171577047Y-95480190D01*
X171386571Y-95432571D01*
X171291333Y-95384952D01*
X171243714Y-95337333D01*
X171196095Y-95242095D01*
X171196095Y-95146857D01*
X171243714Y-95051619D01*
X171291333Y-95004000D01*
X171386571Y-94956380D01*
X171624666Y-94956380D01*
X171767523Y-95004000D01*
X172624666Y-95289714D02*
X172624666Y-95956380D01*
X172386571Y-94908761D02*
X172148476Y-95623047D01*
X172767523Y-95623047D01*
%TO.C,U1*%
X61214095Y-142962380D02*
X61214095Y-143771904D01*
X61261714Y-143867142D01*
X61309333Y-143914761D01*
X61404571Y-143962380D01*
X61595047Y-143962380D01*
X61690285Y-143914761D01*
X61737904Y-143867142D01*
X61785523Y-143771904D01*
X61785523Y-142962380D01*
X62785523Y-143962380D02*
X62214095Y-143962380D01*
X62499809Y-143962380D02*
X62499809Y-142962380D01*
X62404571Y-143105238D01*
X62309333Y-143200476D01*
X62214095Y-143248095D01*
%TO.C,U2*%
X74676095Y-142962380D02*
X74676095Y-143771904D01*
X74723714Y-143867142D01*
X74771333Y-143914761D01*
X74866571Y-143962380D01*
X75057047Y-143962380D01*
X75152285Y-143914761D01*
X75199904Y-143867142D01*
X75247523Y-143771904D01*
X75247523Y-142962380D01*
X75676095Y-143057619D02*
X75723714Y-143010000D01*
X75818952Y-142962380D01*
X76057047Y-142962380D01*
X76152285Y-143010000D01*
X76199904Y-143057619D01*
X76247523Y-143152857D01*
X76247523Y-143248095D01*
X76199904Y-143390952D01*
X75628476Y-143962380D01*
X76247523Y-143962380D01*
%TO.C,U3*%
X87884095Y-142962380D02*
X87884095Y-143771904D01*
X87931714Y-143867142D01*
X87979333Y-143914761D01*
X88074571Y-143962380D01*
X88265047Y-143962380D01*
X88360285Y-143914761D01*
X88407904Y-143867142D01*
X88455523Y-143771904D01*
X88455523Y-142962380D01*
X88836476Y-142962380D02*
X89455523Y-142962380D01*
X89122190Y-143343333D01*
X89265047Y-143343333D01*
X89360285Y-143390952D01*
X89407904Y-143438571D01*
X89455523Y-143533809D01*
X89455523Y-143771904D01*
X89407904Y-143867142D01*
X89360285Y-143914761D01*
X89265047Y-143962380D01*
X88979333Y-143962380D01*
X88884095Y-143914761D01*
X88836476Y-143867142D01*
%TO.C,U4*%
X100838095Y-142962380D02*
X100838095Y-143771904D01*
X100885714Y-143867142D01*
X100933333Y-143914761D01*
X101028571Y-143962380D01*
X101219047Y-143962380D01*
X101314285Y-143914761D01*
X101361904Y-143867142D01*
X101409523Y-143771904D01*
X101409523Y-142962380D01*
X102314285Y-143295714D02*
X102314285Y-143962380D01*
X102076190Y-142914761D02*
X101838095Y-143629047D01*
X102457142Y-143629047D01*
%TO.C,U5*%
X114046095Y-142962380D02*
X114046095Y-143771904D01*
X114093714Y-143867142D01*
X114141333Y-143914761D01*
X114236571Y-143962380D01*
X114427047Y-143962380D01*
X114522285Y-143914761D01*
X114569904Y-143867142D01*
X114617523Y-143771904D01*
X114617523Y-142962380D01*
X115569904Y-142962380D02*
X115093714Y-142962380D01*
X115046095Y-143438571D01*
X115093714Y-143390952D01*
X115188952Y-143343333D01*
X115427047Y-143343333D01*
X115522285Y-143390952D01*
X115569904Y-143438571D01*
X115617523Y-143533809D01*
X115617523Y-143771904D01*
X115569904Y-143867142D01*
X115522285Y-143914761D01*
X115427047Y-143962380D01*
X115188952Y-143962380D01*
X115093714Y-143914761D01*
X115046095Y-143867142D01*
%TO.C,U6*%
X127508095Y-142962380D02*
X127508095Y-143771904D01*
X127555714Y-143867142D01*
X127603333Y-143914761D01*
X127698571Y-143962380D01*
X127889047Y-143962380D01*
X127984285Y-143914761D01*
X128031904Y-143867142D01*
X128079523Y-143771904D01*
X128079523Y-142962380D01*
X128984285Y-142962380D02*
X128793809Y-142962380D01*
X128698571Y-143010000D01*
X128650952Y-143057619D01*
X128555714Y-143200476D01*
X128508095Y-143390952D01*
X128508095Y-143771904D01*
X128555714Y-143867142D01*
X128603333Y-143914761D01*
X128698571Y-143962380D01*
X128889047Y-143962380D01*
X128984285Y-143914761D01*
X129031904Y-143867142D01*
X129079523Y-143771904D01*
X129079523Y-143533809D01*
X129031904Y-143438571D01*
X128984285Y-143390952D01*
X128889047Y-143343333D01*
X128698571Y-143343333D01*
X128603333Y-143390952D01*
X128555714Y-143438571D01*
X128508095Y-143533809D01*
%TO.C,U7*%
X140716095Y-142962380D02*
X140716095Y-143771904D01*
X140763714Y-143867142D01*
X140811333Y-143914761D01*
X140906571Y-143962380D01*
X141097047Y-143962380D01*
X141192285Y-143914761D01*
X141239904Y-143867142D01*
X141287523Y-143771904D01*
X141287523Y-142962380D01*
X141668476Y-142962380D02*
X142335142Y-142962380D01*
X141906571Y-143962380D01*
%TO.C,U8*%
X153924095Y-142962380D02*
X153924095Y-143771904D01*
X153971714Y-143867142D01*
X154019333Y-143914761D01*
X154114571Y-143962380D01*
X154305047Y-143962380D01*
X154400285Y-143914761D01*
X154447904Y-143867142D01*
X154495523Y-143771904D01*
X154495523Y-142962380D01*
X155114571Y-143390952D02*
X155019333Y-143343333D01*
X154971714Y-143295714D01*
X154924095Y-143200476D01*
X154924095Y-143152857D01*
X154971714Y-143057619D01*
X155019333Y-143010000D01*
X155114571Y-142962380D01*
X155305047Y-142962380D01*
X155400285Y-143010000D01*
X155447904Y-143057619D01*
X155495523Y-143152857D01*
X155495523Y-143200476D01*
X155447904Y-143295714D01*
X155400285Y-143343333D01*
X155305047Y-143390952D01*
X155114571Y-143390952D01*
X155019333Y-143438571D01*
X154971714Y-143486190D01*
X154924095Y-143581428D01*
X154924095Y-143771904D01*
X154971714Y-143867142D01*
X155019333Y-143914761D01*
X155114571Y-143962380D01*
X155305047Y-143962380D01*
X155400285Y-143914761D01*
X155447904Y-143867142D01*
X155495523Y-143771904D01*
X155495523Y-143581428D01*
X155447904Y-143486190D01*
X155400285Y-143438571D01*
X155305047Y-143390952D01*
%TO.C,U9*%
X166624095Y-142962380D02*
X166624095Y-143771904D01*
X166671714Y-143867142D01*
X166719333Y-143914761D01*
X166814571Y-143962380D01*
X167005047Y-143962380D01*
X167100285Y-143914761D01*
X167147904Y-143867142D01*
X167195523Y-143771904D01*
X167195523Y-142962380D01*
X167719333Y-143962380D02*
X167909809Y-143962380D01*
X168005047Y-143914761D01*
X168052666Y-143867142D01*
X168147904Y-143724285D01*
X168195523Y-143533809D01*
X168195523Y-143152857D01*
X168147904Y-143057619D01*
X168100285Y-143010000D01*
X168005047Y-142962380D01*
X167814571Y-142962380D01*
X167719333Y-143010000D01*
X167671714Y-143057619D01*
X167624095Y-143152857D01*
X167624095Y-143390952D01*
X167671714Y-143486190D01*
X167719333Y-143533809D01*
X167814571Y-143581428D01*
X168005047Y-143581428D01*
X168100285Y-143533809D01*
X168147904Y-143486190D01*
X168195523Y-143390952D01*
%TO.C,U10*%
X179355904Y-142962380D02*
X179355904Y-143771904D01*
X179403523Y-143867142D01*
X179451142Y-143914761D01*
X179546380Y-143962380D01*
X179736857Y-143962380D01*
X179832095Y-143914761D01*
X179879714Y-143867142D01*
X179927333Y-143771904D01*
X179927333Y-142962380D01*
X180927333Y-143962380D02*
X180355904Y-143962380D01*
X180641619Y-143962380D02*
X180641619Y-142962380D01*
X180546380Y-143105238D01*
X180451142Y-143200476D01*
X180355904Y-143248095D01*
X181546380Y-142962380D02*
X181641619Y-142962380D01*
X181736857Y-143010000D01*
X181784476Y-143057619D01*
X181832095Y-143152857D01*
X181879714Y-143343333D01*
X181879714Y-143581428D01*
X181832095Y-143771904D01*
X181784476Y-143867142D01*
X181736857Y-143914761D01*
X181641619Y-143962380D01*
X181546380Y-143962380D01*
X181451142Y-143914761D01*
X181403523Y-143867142D01*
X181355904Y-143771904D01*
X181308285Y-143581428D01*
X181308285Y-143343333D01*
X181355904Y-143152857D01*
X181403523Y-143057619D01*
X181451142Y-143010000D01*
X181546380Y-142962380D01*
%TO.C,Un1*%
X72445714Y-94956380D02*
X72445714Y-95765904D01*
X72493333Y-95861142D01*
X72540952Y-95908761D01*
X72636190Y-95956380D01*
X72826666Y-95956380D01*
X72921904Y-95908761D01*
X72969523Y-95861142D01*
X73017142Y-95765904D01*
X73017142Y-94956380D01*
X73493333Y-95289714D02*
X73493333Y-95956380D01*
X73493333Y-95384952D02*
X73540952Y-95337333D01*
X73636190Y-95289714D01*
X73779047Y-95289714D01*
X73874285Y-95337333D01*
X73921904Y-95432571D01*
X73921904Y-95956380D01*
X74921904Y-95956380D02*
X74350476Y-95956380D01*
X74636190Y-95956380D02*
X74636190Y-94956380D01*
X74540952Y-95099238D01*
X74445714Y-95194476D01*
X74350476Y-95242095D01*
%TO.C,Un2*%
X100131714Y-94956380D02*
X100131714Y-95765904D01*
X100179333Y-95861142D01*
X100226952Y-95908761D01*
X100322190Y-95956380D01*
X100512666Y-95956380D01*
X100607904Y-95908761D01*
X100655523Y-95861142D01*
X100703142Y-95765904D01*
X100703142Y-94956380D01*
X101179333Y-95289714D02*
X101179333Y-95956380D01*
X101179333Y-95384952D02*
X101226952Y-95337333D01*
X101322190Y-95289714D01*
X101465047Y-95289714D01*
X101560285Y-95337333D01*
X101607904Y-95432571D01*
X101607904Y-95956380D01*
X102036476Y-95051619D02*
X102084095Y-95004000D01*
X102179333Y-94956380D01*
X102417428Y-94956380D01*
X102512666Y-95004000D01*
X102560285Y-95051619D01*
X102607904Y-95146857D01*
X102607904Y-95242095D01*
X102560285Y-95384952D01*
X101988857Y-95956380D01*
X102607904Y-95956380D01*
%TO.C,Un3*%
X129595714Y-94956380D02*
X129595714Y-95765904D01*
X129643333Y-95861142D01*
X129690952Y-95908761D01*
X129786190Y-95956380D01*
X129976666Y-95956380D01*
X130071904Y-95908761D01*
X130119523Y-95861142D01*
X130167142Y-95765904D01*
X130167142Y-94956380D01*
X130643333Y-95289714D02*
X130643333Y-95956380D01*
X130643333Y-95384952D02*
X130690952Y-95337333D01*
X130786190Y-95289714D01*
X130929047Y-95289714D01*
X131024285Y-95337333D01*
X131071904Y-95432571D01*
X131071904Y-95956380D01*
X131452857Y-94956380D02*
X132071904Y-94956380D01*
X131738571Y-95337333D01*
X131881428Y-95337333D01*
X131976666Y-95384952D01*
X132024285Y-95432571D01*
X132071904Y-95527809D01*
X132071904Y-95765904D01*
X132024285Y-95861142D01*
X131976666Y-95908761D01*
X131881428Y-95956380D01*
X131595714Y-95956380D01*
X131500476Y-95908761D01*
X131452857Y-95861142D01*
%TO.C,Un4*%
X159313714Y-94956380D02*
X159313714Y-95765904D01*
X159361333Y-95861142D01*
X159408952Y-95908761D01*
X159504190Y-95956380D01*
X159694666Y-95956380D01*
X159789904Y-95908761D01*
X159837523Y-95861142D01*
X159885142Y-95765904D01*
X159885142Y-94956380D01*
X160361333Y-95289714D02*
X160361333Y-95956380D01*
X160361333Y-95384952D02*
X160408952Y-95337333D01*
X160504190Y-95289714D01*
X160647047Y-95289714D01*
X160742285Y-95337333D01*
X160789904Y-95432571D01*
X160789904Y-95956380D01*
X161694666Y-95289714D02*
X161694666Y-95956380D01*
X161456571Y-94908761D02*
X161218476Y-95623047D01*
X161837523Y-95623047D01*
%TO.C,Vcc1*%
X53959333Y-102068380D02*
X54292666Y-103068380D01*
X54626000Y-102068380D01*
X55387904Y-103020761D02*
X55292666Y-103068380D01*
X55102190Y-103068380D01*
X55006952Y-103020761D01*
X54959333Y-102973142D01*
X54911714Y-102877904D01*
X54911714Y-102592190D01*
X54959333Y-102496952D01*
X55006952Y-102449333D01*
X55102190Y-102401714D01*
X55292666Y-102401714D01*
X55387904Y-102449333D01*
X56245047Y-103020761D02*
X56149809Y-103068380D01*
X55959333Y-103068380D01*
X55864095Y-103020761D01*
X55816476Y-102973142D01*
X55768857Y-102877904D01*
X55768857Y-102592190D01*
X55816476Y-102496952D01*
X55864095Y-102449333D01*
X55959333Y-102401714D01*
X56149809Y-102401714D01*
X56245047Y-102449333D01*
X57197428Y-103068380D02*
X56626000Y-103068380D01*
X56911714Y-103068380D02*
X56911714Y-102068380D01*
X56816476Y-102211238D01*
X56721238Y-102306476D01*
X56626000Y-102354095D01*
%TO.C,\u00DCn+1*%
X87574666Y-94956380D02*
X87574666Y-95765904D01*
X87622285Y-95861142D01*
X87669904Y-95908761D01*
X87765142Y-95956380D01*
X87955619Y-95956380D01*
X88050857Y-95908761D01*
X88098476Y-95861142D01*
X88146095Y-95765904D01*
X88146095Y-94956380D01*
X87669904Y-94623047D02*
X87717523Y-94670666D01*
X87669904Y-94718285D01*
X87622285Y-94670666D01*
X87669904Y-94623047D01*
X87669904Y-94718285D01*
X88050857Y-94623047D02*
X88098476Y-94670666D01*
X88050857Y-94718285D01*
X88003238Y-94670666D01*
X88050857Y-94623047D01*
X88050857Y-94718285D01*
X88622285Y-95289714D02*
X88622285Y-95956380D01*
X88622285Y-95384952D02*
X88669904Y-95337333D01*
X88765142Y-95289714D01*
X88908000Y-95289714D01*
X89003238Y-95337333D01*
X89050857Y-95432571D01*
X89050857Y-95956380D01*
X89527047Y-95575428D02*
X90288952Y-95575428D01*
X89908000Y-95956380D02*
X89908000Y-95194476D01*
X91288952Y-95956380D02*
X90717523Y-95956380D01*
X91003238Y-95956380D02*
X91003238Y-94956380D01*
X90908000Y-95099238D01*
X90812761Y-95194476D01*
X90717523Y-95242095D01*
%TO.C,\u00DCn+2*%
X116530666Y-94956380D02*
X116530666Y-95765904D01*
X116578285Y-95861142D01*
X116625904Y-95908761D01*
X116721142Y-95956380D01*
X116911619Y-95956380D01*
X117006857Y-95908761D01*
X117054476Y-95861142D01*
X117102095Y-95765904D01*
X117102095Y-94956380D01*
X116625904Y-94623047D02*
X116673523Y-94670666D01*
X116625904Y-94718285D01*
X116578285Y-94670666D01*
X116625904Y-94623047D01*
X116625904Y-94718285D01*
X117006857Y-94623047D02*
X117054476Y-94670666D01*
X117006857Y-94718285D01*
X116959238Y-94670666D01*
X117006857Y-94623047D01*
X117006857Y-94718285D01*
X117578285Y-95289714D02*
X117578285Y-95956380D01*
X117578285Y-95384952D02*
X117625904Y-95337333D01*
X117721142Y-95289714D01*
X117864000Y-95289714D01*
X117959238Y-95337333D01*
X118006857Y-95432571D01*
X118006857Y-95956380D01*
X118483047Y-95575428D02*
X119244952Y-95575428D01*
X118864000Y-95956380D02*
X118864000Y-95194476D01*
X119673523Y-95051619D02*
X119721142Y-95004000D01*
X119816380Y-94956380D01*
X120054476Y-94956380D01*
X120149714Y-95004000D01*
X120197333Y-95051619D01*
X120244952Y-95146857D01*
X120244952Y-95242095D01*
X120197333Y-95384952D01*
X119625904Y-95956380D01*
X120244952Y-95956380D01*
%TO.C,\u00DCn+3*%
X145740666Y-94956380D02*
X145740666Y-95765904D01*
X145788285Y-95861142D01*
X145835904Y-95908761D01*
X145931142Y-95956380D01*
X146121619Y-95956380D01*
X146216857Y-95908761D01*
X146264476Y-95861142D01*
X146312095Y-95765904D01*
X146312095Y-94956380D01*
X145835904Y-94623047D02*
X145883523Y-94670666D01*
X145835904Y-94718285D01*
X145788285Y-94670666D01*
X145835904Y-94623047D01*
X145835904Y-94718285D01*
X146216857Y-94623047D02*
X146264476Y-94670666D01*
X146216857Y-94718285D01*
X146169238Y-94670666D01*
X146216857Y-94623047D01*
X146216857Y-94718285D01*
X146788285Y-95289714D02*
X146788285Y-95956380D01*
X146788285Y-95384952D02*
X146835904Y-95337333D01*
X146931142Y-95289714D01*
X147074000Y-95289714D01*
X147169238Y-95337333D01*
X147216857Y-95432571D01*
X147216857Y-95956380D01*
X147693047Y-95575428D02*
X148454952Y-95575428D01*
X148074000Y-95956380D02*
X148074000Y-95194476D01*
X148835904Y-94956380D02*
X149454952Y-94956380D01*
X149121619Y-95337333D01*
X149264476Y-95337333D01*
X149359714Y-95384952D01*
X149407333Y-95432571D01*
X149454952Y-95527809D01*
X149454952Y-95765904D01*
X149407333Y-95861142D01*
X149359714Y-95908761D01*
X149264476Y-95956380D01*
X148978761Y-95956380D01*
X148883523Y-95908761D01*
X148835904Y-95861142D01*
%TO.C,\u00DCn+4*%
X175458666Y-94956380D02*
X175458666Y-95765904D01*
X175506285Y-95861142D01*
X175553904Y-95908761D01*
X175649142Y-95956380D01*
X175839619Y-95956380D01*
X175934857Y-95908761D01*
X175982476Y-95861142D01*
X176030095Y-95765904D01*
X176030095Y-94956380D01*
X175553904Y-94623047D02*
X175601523Y-94670666D01*
X175553904Y-94718285D01*
X175506285Y-94670666D01*
X175553904Y-94623047D01*
X175553904Y-94718285D01*
X175934857Y-94623047D02*
X175982476Y-94670666D01*
X175934857Y-94718285D01*
X175887238Y-94670666D01*
X175934857Y-94623047D01*
X175934857Y-94718285D01*
X176506285Y-95289714D02*
X176506285Y-95956380D01*
X176506285Y-95384952D02*
X176553904Y-95337333D01*
X176649142Y-95289714D01*
X176792000Y-95289714D01*
X176887238Y-95337333D01*
X176934857Y-95432571D01*
X176934857Y-95956380D01*
X177411047Y-95575428D02*
X178172952Y-95575428D01*
X177792000Y-95956380D02*
X177792000Y-95194476D01*
X179077714Y-95289714D02*
X179077714Y-95956380D01*
X178839619Y-94908761D02*
X178601523Y-95623047D01*
X179220571Y-95623047D01*
%TO.C,R8*%
X180173333Y-120594380D02*
X179840000Y-120118190D01*
X179601904Y-120594380D02*
X179601904Y-119594380D01*
X179982857Y-119594380D01*
X180078095Y-119642000D01*
X180125714Y-119689619D01*
X180173333Y-119784857D01*
X180173333Y-119927714D01*
X180125714Y-120022952D01*
X180078095Y-120070571D01*
X179982857Y-120118190D01*
X179601904Y-120118190D01*
X180744761Y-120022952D02*
X180649523Y-119975333D01*
X180601904Y-119927714D01*
X180554285Y-119832476D01*
X180554285Y-119784857D01*
X180601904Y-119689619D01*
X180649523Y-119642000D01*
X180744761Y-119594380D01*
X180935238Y-119594380D01*
X181030476Y-119642000D01*
X181078095Y-119689619D01*
X181125714Y-119784857D01*
X181125714Y-119832476D01*
X181078095Y-119927714D01*
X181030476Y-119975333D01*
X180935238Y-120022952D01*
X180744761Y-120022952D01*
X180649523Y-120070571D01*
X180601904Y-120118190D01*
X180554285Y-120213428D01*
X180554285Y-120403904D01*
X180601904Y-120499142D01*
X180649523Y-120546761D01*
X180744761Y-120594380D01*
X180935238Y-120594380D01*
X181030476Y-120546761D01*
X181078095Y-120499142D01*
X181125714Y-120403904D01*
X181125714Y-120213428D01*
X181078095Y-120118190D01*
X181030476Y-120070571D01*
X180935238Y-120022952D01*
%TD*%
M02*
